<svg width="43" height="45" viewBox="0 0 43 45" fill="none" xmlns="http://www.w3.org/2000/svg">
<path d="M27.416 45V31.368L30.936 34.376H20.632C16.4933 34.376 12.9093 33.7147 9.88 32.392C6.89333 31.0267 4.58933 29.0853 2.968 26.568C1.34667 24.0507 0.536 21.0427 0.536 17.544C0.536 13.96 1.368 10.888 3.032 8.328C4.73867 5.72533 7.14933 3.72 10.264 2.312C13.3787 0.903997 17.048 0.199997 21.272 0.199997H42.264V45H27.416ZM0.728 45L11.992 28.68H27.032L16.536 45H0.728ZM27.416 26.632V8.2L30.936 11.848H21.528C19.608 11.848 18.1573 12.296 17.176 13.192C16.2373 14.088 15.768 15.4533 15.768 17.288C15.768 19.1653 16.2587 20.5947 17.24 21.576C18.2213 22.5147 19.6507 22.984 21.528 22.984H30.936L27.416 26.632Z" fill="#FF0000"/>
</svg>
