<svg width="41" height="41" viewBox="0 0 41 41" fill="none" xmlns="http://www.w3.org/2000/svg">
<circle cx="20.5" cy="20.5" r="20.5" fill="#DEEEFE"/>
<path d="M33.2435 7.00146V14.5095H16.5221C16.3202 14.5078 16.1199 14.5361 15.9327 14.5929C15.7455 14.6497 15.5751 14.7337 15.4314 14.8402C15.3144 14.9272 15.219 15.029 15.1495 15.1411C15.305 13.2392 16.2644 11.4242 17.8881 9.96027C19.5117 8.49631 21.7149 7.45976 24.1769 7.00146H33.2435Z" fill="url(#paint0_linear_112_4)"/>
<path d="M24.4823 25.9373C24.3444 27.8487 23.395 29.6767 21.7733 31.1533C20.1517 32.6299 17.9431 33.6775 15.4712 34.1425H6.8208V26.636H23.0622C23.2688 26.6381 23.474 26.6086 23.6651 26.5496C23.8479 26.4936 24.0138 26.4105 24.1529 26.3053C24.2928 26.1994 24.4046 26.0745 24.4823 25.9373Z" fill="url(#paint1_linear_112_4)"/>
<path d="M34.5883 25.4859C34.5955 26.6439 34.2877 27.7907 33.6837 28.856C33.5609 29.0705 33.426 29.2818 33.2796 29.4876C33.2754 29.4962 33.2712 29.4994 33.2712 29.5053C33.2698 29.5097 33.2671 29.5139 33.2634 29.5175C32.021 31.2817 30.0087 32.6713 27.5641 33.4531C26.1427 33.9135 24.6099 34.1478 23.0621 34.1413H15.4748L15.5621 34.1236C18.0134 33.647 20.1992 32.5966 21.8029 31.1246C23.4066 29.6527 24.345 27.8354 24.4823 25.9361V25.9329C24.6273 25.6495 24.6301 25.336 24.4901 25.0511C24.4864 25.0452 24.4823 25.0362 24.4781 25.0303C24.4026 24.8933 24.2921 24.7688 24.1529 24.6638C24.0102 24.5565 23.8399 24.472 23.6524 24.4157C23.4649 24.3593 23.264 24.3321 23.0621 24.3359H16.5221C16.1969 24.3359 15.8716 24.3272 15.5501 24.3033C15.5386 24.3033 15.5265 24.3001 15.5108 24.3001C14.3095 24.2287 13.1324 24.0073 12.028 23.645C9.27998 22.7563 7.09182 21.1082 5.91617 19.0415C5.76136 18.7753 5.62626 18.5028 5.51148 18.2253C5.16831 17.3946 4.99587 16.5295 5.00011 15.6597C4.99322 14.4991 5.30507 13.35 5.91617 12.2841C7.09864 10.2238 9.28528 8.58115 12.028 7.69288C12.8285 7.42959 13.6692 7.24146 14.531 7.13277C14.5629 7.12648 14.5864 7.12373 14.6021 7.12059C14.61 7.11908 14.618 7.11816 14.6262 7.11784C15.2527 7.03913 15.8868 6.99972 16.5221 7H24.1769C21.7148 7.4583 19.5116 8.49485 17.888 9.95881C16.2644 11.4228 15.305 13.2377 15.1495 15.1396C15.1328 15.1617 15.1183 15.1847 15.1061 15.2084C15.0278 15.3509 14.9887 15.5039 14.9911 15.6581C14.9889 15.8196 15.0292 15.9798 15.1098 16.1295C15.1182 16.1461 15.1289 16.162 15.1417 16.177C15.21 16.2963 15.3084 16.4046 15.4314 16.4959C15.5745 16.603 15.7448 16.6874 15.9322 16.7442C16.1195 16.801 16.3201 16.829 16.5221 16.8266H23.0621C24.6066 16.8205 26.1366 17.0506 27.5588 17.503C30.3241 18.3763 32.5239 20.0287 33.6864 22.106C33.84 22.3753 33.9738 22.6506 34.0874 22.9309C34.4233 23.759 34.5921 24.6202 34.5883 25.4859Z" fill="url(#paint2_linear_112_4)"/>
<g style="mix-blend-mode:multiply" opacity="0.16">
<g style="mix-blend-mode:multiply" opacity="0.16">
<path d="M24.4822 25.9373C24.3442 27.8487 23.3948 29.6767 21.7732 31.1533C20.1516 32.6299 17.9429 33.6775 15.4711 34.1425H13.0596C15.0832 33.4271 16.8696 32.3825 18.2894 31.0844C19.7093 29.7863 20.7269 28.2672 21.2686 26.6372H23.061C23.2677 26.6392 23.4727 26.6098 23.6639 26.5508C23.8467 26.4948 24.0126 26.4117 24.1518 26.3065C24.2922 26.2003 24.4043 26.075 24.4822 25.9373Z" fill="black"/>
</g>
</g>
<g style="mix-blend-mode:multiply" opacity="0.16">
<g style="mix-blend-mode:multiply" opacity="0.16">
<path d="M26.3505 7.00146C24.1173 8.24973 19.5841 11.1308 18.4416 14.5095H16.5221C16.3202 14.5078 16.1199 14.5361 15.9327 14.5929C15.7455 14.6497 15.5751 14.7337 15.4314 14.8402C15.3144 14.9272 15.219 15.029 15.1495 15.1411C15.305 13.2392 16.2644 11.4242 17.8881 9.96027C19.5117 8.49631 21.7149 7.45976 24.1769 7.00146H26.3505Z" fill="black"/>
</g>
</g>
<g style="mix-blend-mode:multiply" opacity="0.25">
<g style="mix-blend-mode:multiply" opacity="0.25">
<path d="M33.2436 9.2478V14.5111H19.2788C20.4406 14.4247 21.6066 14.3654 22.769 14.3233C23.9313 14.2813 25.0973 14.2448 26.2591 14.231C27.4251 14.2043 28.5875 14.2075 29.7535 14.1984C30.7992 14.2075 31.8355 14.2075 32.8792 14.2252C32.8907 13.8826 32.8991 13.5397 32.9184 13.1945C32.9383 12.7561 32.9582 12.3182 32.9942 11.8802C33.0517 11.0028 33.1286 10.1237 33.2436 9.2478Z" fill="black"/>
</g>
</g>
<g style="mix-blend-mode:screen" opacity="0.7">
<g style="mix-blend-mode:screen" opacity="0.7">
<path d="M34.5882 25.4861C34.5954 26.644 34.2876 27.7908 33.6837 28.8562C33.5608 29.0707 33.4259 29.282 33.2795 29.4878C33.3192 29.4073 33.4499 29.1507 33.6455 28.7576C33.9484 28.089 34.1467 27.3962 34.2363 26.6931C34.2928 26.2275 34.3049 25.7594 34.2724 25.2924C34.2326 24.7761 34.1371 24.263 33.9869 23.7583C33.9091 23.4972 33.8124 23.2396 33.6972 22.9864C33.5623 22.7245 33.4274 22.4589 33.2925 22.1938C32.9899 21.6724 32.6177 21.1754 32.182 20.7103C31.7574 20.2389 31.2666 19.8033 30.7179 19.4109C30.1894 19.0301 29.6159 18.6862 29.0045 18.3834C28.4245 18.1005 27.8158 17.8524 27.1838 17.6415C26.6146 17.4574 26.0273 17.307 25.427 17.1913C24.5133 17.0211 23.5791 16.9203 22.6385 16.8905C21.9483 16.8512 21.5557 16.828 21.5557 16.828H23.0589C24.6034 16.8218 26.1333 17.0519 27.5556 17.5044C30.3209 18.3776 32.5206 20.0301 33.6831 22.1074C33.8367 22.3766 33.9706 22.652 34.0842 22.9322C34.4209 23.7598 34.5908 24.6207 34.5882 25.4861Z" fill="white"/>
</g>
</g>
<g style="mix-blend-mode:multiply" opacity="0.25">
<g style="mix-blend-mode:multiply" opacity="0.25">
<path d="M14.2215 34.1413H6.8208V28.4656C6.91178 28.9393 6.96719 29.4083 7.0268 29.8839C7.07438 30.3576 7.1183 30.8313 7.14602 31.3019C7.18575 31.7756 7.19361 32.2496 7.21714 32.7233L7.23335 33.8314C7.71282 33.8373 8.19281 33.8373 8.6728 33.8463C9.2877 33.8644 9.9026 33.8703 10.5211 33.9001C11.7546 33.9449 12.9881 34.0132 14.2215 34.1413Z" fill="black"/>
</g>
</g>
<g style="mix-blend-mode:screen" opacity="0.7">
<g style="mix-blend-mode:screen" opacity="0.7">
<path d="M15.5108 24.3002C14.3095 24.2287 13.1324 24.0073 12.028 23.645C9.27998 22.7564 7.09182 21.1083 5.91617 19.0416C5.76136 18.7753 5.62626 18.5029 5.51148 18.2254C5.16831 17.3947 4.99587 16.5295 5.00011 15.6597C4.99322 14.4992 5.30507 13.3501 5.91617 12.2842C7.09864 10.2238 9.28528 8.58119 12.028 7.69292C12.8285 7.42963 13.6692 7.24151 14.531 7.13281C14.0987 7.21091 13.6723 7.30636 13.2536 7.41876C10.4134 8.18078 8.06357 9.72352 6.678 11.7358C5.7617 13.0572 5.33038 14.5381 5.42834 16.0262C5.45907 16.7739 5.63142 17.5146 5.94022 18.2258C6.0312 18.4073 6.11853 18.5891 6.20585 18.7678L6.26912 18.9018L6.28532 18.9348C6.28897 18.9403 6.29162 18.9463 6.29317 18.9524L6.3329 19.018L6.48348 19.2714C6.68378 19.5993 6.91296 19.9169 7.16949 20.2219C7.65583 20.8027 8.22953 21.3395 8.87928 21.8217C9.46902 22.2533 10.1147 22.6396 10.8066 22.9749C11.3973 23.2565 12.0167 23.5025 12.6591 23.7106C13.1604 23.8707 13.6775 24.0013 14.2058 24.101C14.636 24.1839 15.0716 24.2503 15.5108 24.3002Z" fill="white"/>
</g>
</g>
<g style="mix-blend-mode:screen" opacity="0.7">
<g style="mix-blend-mode:screen" opacity="0.7">
<path d="M24.1768 7.00146C21.7148 7.45976 19.5116 8.49631 17.888 9.96027C16.2643 11.4242 15.305 13.2392 15.1495 15.1411C15.1327 15.1632 15.1182 15.1862 15.1061 15.2098L15.138 15.1352C15.1259 14.8995 15.1259 14.6615 15.1259 14.4231C15.1495 14.1851 15.185 13.9467 15.2169 13.7051C15.2692 13.4694 15.3398 13.2338 15.3994 12.9981C15.4789 12.7624 15.5861 12.5362 15.6771 12.3009C15.7816 12.0715 15.9113 11.8508 16.0378 11.6245C16.1727 11.4042 16.3317 11.1925 16.4744 10.9749C16.6407 10.7635 16.8232 10.564 16.9973 10.3554C17.1876 10.159 17.3858 9.96501 17.5845 9.77411C17.7983 9.58951 18.0247 9.41393 18.2428 9.23482C18.4807 9.06828 18.7134 8.90135 18.9607 8.74031L19.734 8.29647C20.0038 8.16253 20.2773 8.03723 20.5549 7.90918C20.8446 7.80195 21.1264 7.68569 21.4156 7.58121L22.3123 7.31922C22.626 7.25049 22.9308 7.18214 23.2404 7.12283C23.5499 7.0757 23.8636 7.03721 24.1768 7.00146Z" fill="white"/>
</g>
</g>
<g style="mix-blend-mode:screen" opacity="0.7">
<g style="mix-blend-mode:screen" opacity="0.7">
<path d="M24.554 25.933C24.5577 26.1773 24.5577 26.4157 24.5499 26.6569C24.53 26.8984 24.4903 27.1369 24.4547 27.378C24.3993 27.6163 24.3359 27.8547 24.2644 28.0933C24.1849 28.329 24.0819 28.5611 23.9904 28.7932C23.8858 29.0257 23.7488 29.2461 23.6244 29.4727C23.49 29.6962 23.3352 29.9107 23.1841 30.1283C23.0215 30.3396 22.8396 30.5423 22.6649 30.7508C22.4746 30.9504 22.2759 31.1436 22.0777 31.3377C21.8639 31.5227 21.6375 31.7014 21.4194 31.8828C21.1815 32.0529 20.9489 32.2199 20.7015 32.3836L19.9277 32.8306C19.6579 32.9647 19.3843 33.0956 19.1068 33.2234L18.2461 33.56L17.3458 33.8311L16.4213 34.0337C16.1834 34.0695 15.9507 34.1052 15.7154 34.1351L15.7677 34.141L15.4937 34.1649C15.4901 34.1681 15.4817 34.1681 15.4781 34.1681L15.4739 34.141L15.4702 34.1142L15.5612 34.1233C18.0125 33.6466 20.1983 32.5963 21.802 31.1243C23.4057 29.6523 24.3441 27.8351 24.4814 25.9357V25.9326C24.5583 25.7908 24.5961 25.6387 24.5922 25.4856C24.621 25.6351 24.608 25.7874 24.554 25.933Z" fill="white"/>
</g>
</g>
<defs>
<linearGradient id="paint0_linear_112_4" x1="33.2435" y1="11.0713" x2="15.8914" y2="11.0713" gradientUnits="userSpaceOnUse">
<stop stop-color="#6888C8"/>
</linearGradient>
<linearGradient id="paint1_linear_112_4" x1="6.132" y1="30.0399" x2="22.8045" y2="30.0399" gradientUnits="userSpaceOnUse">
<stop stop-color="#6888C8"/>
<stop offset="0.940625" stop-color="#69DCFC"/>
</linearGradient>
<linearGradient id="paint2_linear_112_4" x1="19.7942" y1="6.78287" x2="19.7942" y2="34.8742" gradientUnits="userSpaceOnUse">
<stop stop-color="#345392"/>
<stop offset="0.83125" stop-color="#6DDDFC"/>
</linearGradient>
</defs>
</svg>
