<svg width="26" height="26" viewBox="0 0 26 26" fill="none" xmlns="http://www.w3.org/2000/svg">
<g clip-path="url(#clip0_237_91)">
<path d="M24.0781 20.4844C24.2767 20.3298 24.4349 20.1295 24.5395 19.9006C24.644 19.6717 24.6917 19.4209 24.6785 19.1696C24.6653 18.9183 24.5916 18.674 24.4637 18.4573C24.3358 18.2406 24.1574 18.058 23.9438 17.925L23.9375 8.82812L22.375 9.875V17.9219C22.1635 18.0545 21.9869 18.236 21.86 18.4509C21.733 18.6659 21.6594 18.9081 21.6453 19.1574C21.6312 19.4066 21.6771 19.6556 21.779 19.8835C21.881 20.1114 22.0361 20.3116 22.2313 20.4672L21.6406 21.2516C21.1153 21.9198 20.8244 22.7423 20.8125 23.5922V25.5016H22.0859C22.3919 25.5015 22.689 25.3995 22.9304 25.2116C23.1718 25.0237 23.3437 24.7606 23.4188 24.4641L23.9359 22.3766V25.5016H25.4984V23.6109C25.4849 22.7569 25.1918 21.9309 24.6641 21.2594L24.0781 20.4844ZM13 0.5L0.5 6.75L13 14.5625L25.5 6.75L13 0.5Z" fill="#5CA241"/>
<path d="M13 16.125L5.1875 10.9219V13.5938C5.1875 15.0156 9.78125 19.25 13 19.25C16.2188 19.25 20.8125 15.0156 20.8125 13.5938V10.9219L13 16.125Z" fill="#5CA241"/>
</g>
<defs>
<clipPath id="clip0_237_91">
<rect width="25" height="25" fill="white" transform="translate(0.5 0.5)"/>
</clipPath>
</defs>
</svg>
