<svg width="29" height="29" viewBox="0 0 29 29" fill="none" xmlns="http://www.w3.org/2000/svg">
<path d="M14.5 6.99984C15.9348 8.04603 17.2851 9.20357 18.5382 10.4617C19.7964 11.7149 20.9539 13.0651 22.0001 14.5M14.5 6.99984C13.0651 8.04603 11.7149 9.20357 10.4617 10.4617C9.20357 11.7149 8.04603 13.0651 6.99984 14.5M14.5 6.99984C18.8137 3.8775 22.8943 2.70542 24.5944 4.40554C26.2945 6.10567 25.1224 10.1862 22.0001 14.5M22.0001 14.5C25.1224 18.8137 26.2945 22.8943 24.5944 24.5944C23.3341 25.8547 20.764 25.5369 17.7625 24.0144M22.0001 14.5C20.9539 15.9348 19.7964 17.2851 18.5382 18.5382C17.2851 19.7964 15.9348 20.9539 14.5 22.0001M6.99984 14.5C8.04603 15.9348 9.20357 17.2851 10.4617 18.5382C11.7149 19.7964 13.0651 20.9539 14.5 22.0001M6.99984 14.5C3.8775 18.8137 2.70542 22.8943 4.40554 24.5944C6.10567 26.2945 10.1862 25.1224 14.5 22.0001M6.99984 14.5C3.87871 10.1862 2.70663 6.10567 4.40554 4.40554C5.66583 3.14525 8.23596 3.46304 11.2375 4.98554" stroke="white" stroke-width="1.5" stroke-linecap="round" stroke-linejoin="round"/>
<path d="M14.4997 16.9163C15.8344 16.9163 16.9163 15.8344 16.9163 14.4997C16.9163 13.165 15.8344 12.083 14.4997 12.083C13.165 12.083 12.083 13.165 12.083 14.4997C12.083 15.8344 13.165 16.9163 14.4997 16.9163Z" stroke="white" stroke-width="1.5" stroke-linecap="round" stroke-linejoin="round"/>
</svg>
