<svg width="481" height="241" viewBox="0 0 481 241" fill="none" xmlns="http://www.w3.org/2000/svg">
<g opacity="0.1" clip-path="url(#clip0_1213_22)">
<path d="M308.142 228.778L-123.772 199.832L-118.921 140.59L215.618 174.077L308.142 228.778Z" stroke="#0136B5" stroke-width="2"/>
<path d="M-111.028 44.2064L-106.319 -13.2973L22.3216 59.3511L-111.028 44.2064Z" stroke="#0136B5" stroke-width="2"/>
<path d="M-117.789 126.761L-113.635 76.0438L-112.222 60.0335L48.0027 76.3879L174.18 149.306L-117.789 126.761Z" stroke="#0136B5" stroke-width="2"/>
<path d="M-56.0501 -9.72941L82.4772 72.665L89.346 -11.1994L-56.0501 -9.72941Z" stroke="#0136B5" stroke-width="2"/>
<path d="M168.571 120.492L173.685 -12.2629L109.186 -11.6031L101.578 81.3149L168.571 120.492Z" stroke="#0136B5" stroke-width="2"/>
<path d="M236.477 158.774L264.764 -12.95L193.41 -12.2226L182.055 126.434L236.477 158.774Z" stroke="#0136B5" stroke-width="2"/>
<path d="M339.633 218.268L349.318 -13.7834L274.846 -13.0518L259.79 170.806L339.633 218.268Z" stroke="#0136B5" stroke-width="2"/>
<path d="M382.246 -14.1232L362.058 232.392L459.361 238.913L480.161 -15.0912L382.246 -14.1232Z" stroke="#0136B5" stroke-width="2"/>
</g>
<defs>
<clipPath id="clip0_1213_22">
<rect width="524.22" height="238.835" fill="white" transform="translate(-44 1.92188) rotate(-0.210103)"/>
</clipPath>
</defs>
</svg>
