<svg width="20" height="20" viewBox="0 0 20 20" fill="none" xmlns="http://www.w3.org/2000/svg">
<path d="M6.45835 2.08334C6.45835 1.91758 6.3925 1.75861 6.27529 1.6414C6.15808 1.52419 5.99911 1.45834 5.83335 1.45834C5.66759 1.45834 5.50862 1.52419 5.39141 1.6414C5.27419 1.75861 5.20835 1.91758 5.20835 2.08334V3.40001C4.00835 3.49584 3.22168 3.73084 2.64335 4.31001C2.06418 4.88834 1.82918 5.67584 1.73251 6.87501H18.2675C18.1708 5.67501 17.9358 4.88834 17.3567 4.31001C16.7783 3.73084 15.9908 3.49584 14.7917 3.39918V2.08334C14.7917 1.91758 14.7258 1.75861 14.6086 1.6414C14.4914 1.52419 14.3324 1.45834 14.1667 1.45834C14.0009 1.45834 13.8419 1.52419 13.7247 1.6414C13.6075 1.75861 13.5417 1.91758 13.5417 2.08334V3.34418C12.9875 3.33334 12.3658 3.33334 11.6667 3.33334H8.33335C7.63418 3.33334 7.01251 3.33334 6.45835 3.34418V2.08334Z" fill="#5CA241"/>
<path fill-rule="evenodd" clip-rule="evenodd" d="M1.66666 10C1.66666 9.30083 1.66666 8.67917 1.67749 8.125H18.3225C18.3333 8.67917 18.3333 9.30083 18.3333 10V11.6667C18.3333 14.8092 18.3333 16.3808 17.3567 17.3567C16.38 18.3325 14.8092 18.3333 11.6667 18.3333H8.33332C5.19082 18.3333 3.61916 18.3333 2.64332 17.3567C1.66749 16.38 1.66666 14.8092 1.66666 11.6667V10ZM14.1667 11.6667C14.3877 11.6667 14.5996 11.5789 14.7559 11.4226C14.9122 11.2663 15 11.0543 15 10.8333C15 10.6123 14.9122 10.4004 14.7559 10.2441C14.5996 10.0878 14.3877 10 14.1667 10C13.9456 10 13.7337 10.0878 13.5774 10.2441C13.4211 10.4004 13.3333 10.6123 13.3333 10.8333C13.3333 11.0543 13.4211 11.2663 13.5774 11.4226C13.7337 11.5789 13.9456 11.6667 14.1667 11.6667ZM14.1667 15C14.3877 15 14.5996 14.9122 14.7559 14.7559C14.9122 14.5996 15 14.3877 15 14.1667C15 13.9457 14.9122 13.7337 14.7559 13.5774C14.5996 13.4211 14.3877 13.3333 14.1667 13.3333C13.9456 13.3333 13.7337 13.4211 13.5774 13.5774C13.4211 13.7337 13.3333 13.9457 13.3333 14.1667C13.3333 14.3877 13.4211 14.5996 13.5774 14.7559C13.7337 14.9122 13.9456 15 14.1667 15ZM10.8333 10.8333C10.8333 11.0543 10.7455 11.2663 10.5892 11.4226C10.433 11.5789 10.221 11.6667 9.99999 11.6667C9.77898 11.6667 9.56701 11.5789 9.41073 11.4226C9.25445 11.2663 9.16666 11.0543 9.16666 10.8333C9.16666 10.6123 9.25445 10.4004 9.41073 10.2441C9.56701 10.0878 9.77898 10 9.99999 10C10.221 10 10.433 10.0878 10.5892 10.2441C10.7455 10.4004 10.8333 10.6123 10.8333 10.8333ZM10.8333 14.1667C10.8333 14.3877 10.7455 14.5996 10.5892 14.7559C10.433 14.9122 10.221 15 9.99999 15C9.77898 15 9.56701 14.9122 9.41073 14.7559C9.25445 14.5996 9.16666 14.3877 9.16666 14.1667C9.16666 13.9457 9.25445 13.7337 9.41073 13.5774C9.56701 13.4211 9.77898 13.3333 9.99999 13.3333C10.221 13.3333 10.433 13.4211 10.5892 13.5774C10.7455 13.7337 10.8333 13.9457 10.8333 14.1667ZM5.83332 11.6667C6.05434 11.6667 6.2663 11.5789 6.42258 11.4226C6.57886 11.2663 6.66666 11.0543 6.66666 10.8333C6.66666 10.6123 6.57886 10.4004 6.42258 10.2441C6.2663 10.0878 6.05434 10 5.83332 10C5.61231 10 5.40035 10.0878 5.24407 10.2441C5.08779 10.4004 4.99999 10.6123 4.99999 10.8333C4.99999 11.0543 5.08779 11.2663 5.24407 11.4226C5.40035 11.5789 5.61231 11.6667 5.83332 11.6667ZM5.83332 15C6.05434 15 6.2663 14.9122 6.42258 14.7559C6.57886 14.5996 6.66666 14.3877 6.66666 14.1667C6.66666 13.9457 6.57886 13.7337 6.42258 13.5774C6.2663 13.4211 6.05434 13.3333 5.83332 13.3333C5.61231 13.3333 5.40035 13.4211 5.24407 13.5774C5.08779 13.7337 4.99999 13.9457 4.99999 14.1667C4.99999 14.3877 5.08779 14.5996 5.24407 14.7559C5.40035 14.9122 5.61231 15 5.83332 15Z" fill="#5CA241"/>
</svg>
