<svg width="157" height="73" viewBox="0 0 157 73" fill="none" xmlns="http://www.w3.org/2000/svg">
<g opacity="0.21" clip-path="url(#clip0_315_481)">
<path d="M63.8233 -27.0661L223.21 -15.228L221.428 8.87675L97.9734 -4.79558L63.8233 -27.0661Z" stroke="#0136B5" stroke-width="2"/>
<path d="M221.012 14.5033L219.486 35.1396L218.967 41.654L159.839 34.9772L113.268 5.2895L221.012 14.5033Z" stroke="#0136B5" stroke-width="2"/>
<path d="M198.249 70.0332L147.119 36.4878L144.596 70.6112L198.249 70.0332Z" stroke="#0136B5" stroke-width="2"/>
<path d="M115.342 17.0153L113.473 71.0324L137.274 70.7729L140.069 32.9657L115.342 17.0153Z" stroke="#0136B5" stroke-width="2"/>
<path d="M90.278 1.42895L79.8636 71.2991L106.194 71.013L110.365 14.5955L90.278 1.42895Z" stroke="#0136B5" stroke-width="2"/>
<path d="M52.2031 -22.7945L48.6611 71.6257L76.1424 71.3383L81.6728 -3.47118L52.2031 -22.7945Z" stroke="#0136B5" stroke-width="2"/>
<path d="M36.511 71.7596L43.9263 -28.5444L8.0192 -31.2111L0.378743 72.1399L36.511 71.7596Z" stroke="#0136B5" stroke-width="2"/>
</g>
<defs>
<clipPath id="clip0_315_481">
<rect width="223.149" height="103.467" fill="white" transform="translate(223.527 71.4668) rotate(179.79)"/>
</clipPath>
</defs>
</svg>
