<svg width="30" height="30" viewBox="0 0 30 30" fill="none" xmlns="http://www.w3.org/2000/svg">
<path d="M21.993 1.08025C21.9263 1.07966 21.8596 1.08066 21.7915 1.08201C21.0138 1.09783 20.1399 1.24531 19.1219 1.55814C17.8094 1.96144 16.8906 3.19156 17.0216 4.50611C17.1166 5.46353 17.9114 6.50668 18.8307 7.17945C20.2759 8.23683 21.3087 9.32691 22.0168 10.3693L22.4635 13.2312L23.5458 13.0609L23.249 11.1602C23.1705 9.81259 22.7815 8.48169 21.9399 7.11171C22.7919 7.62675 23.5431 8.19336 24.1683 8.76148L25.8218 12.0263L26.7977 11.5319L25.2432 8.46125C24.8244 7.44482 24.1976 6.48974 23.2638 5.58839C24.1995 5.86812 25.0497 6.22355 25.7815 6.61003L28.1198 9.25964L28.9401 8.53449L26.567 5.8465L26.5615 5.85207C25.8617 4.98318 24.967 4.22978 23.7929 3.61437V3.60892C23.7766 3.59468 23.7602 3.61988 23.7453 3.61988C22.2629 3.51265 20.9487 3.61009 20.0961 3.83609C20.8797 3.21306 22.1355 2.74935 23.8808 2.59097L26.6567 3.66382L27.0522 2.64218L24.6279 1.70468L24.6224 1.70281C23.8333 1.32242 22.9921 1.08968 21.993 1.08025ZM8.06594 1.08201C7.07934 1.0956 6.24736 1.32599 5.46584 1.70281L3.03607 2.64207L3.42982 3.66382L6.20752 2.59097C7.95186 2.74953 9.20893 3.21324 9.99227 3.83609C9.13973 3.61009 7.82547 3.51265 6.34305 3.61988C6.32816 3.61988 6.31176 3.59468 6.29541 3.60898V3.61443C5.12125 4.2299 4.22664 4.98312 3.5268 5.85201L3.51953 5.8465L1.14648 8.53455L1.96855 9.25964L4.3068 6.61003C5.03863 6.22355 5.88883 5.86812 6.82457 5.58834C5.89059 6.48974 5.26199 7.44482 4.84328 8.46119L3.28879 11.5319L4.26654 12.0263L5.91813 8.76142C6.54344 8.19341 7.29449 7.62669 8.14645 7.11171C7.30504 8.48164 6.91598 9.81259 6.83729 11.1602L6.54256 13.0607L7.62467 13.231L8.06963 10.3728C8.77768 9.32949 9.80893 8.23783 11.2556 7.17945C12.1749 6.50662 12.9697 5.46347 13.0647 4.50605C13.1956 3.1915 12.2787 1.96132 10.9662 1.55808C9.84631 1.21396 8.90066 1.07058 8.06582 1.08201H8.06594ZM18.0306 13.8171C17.3621 13.8171 16.6084 14.1048 15.674 15.1483V22.8131C16.8013 21.9988 17.929 21.6631 18.9882 21.6504C20.3351 21.6343 21.5454 22.0976 22.5954 22.555C23.6454 23.0123 24.5607 23.4532 25.1826 23.5199C25.4937 23.5533 25.7101 23.5147 25.9188 23.3844C26.1055 23.2678 26.3067 23.0436 26.5047 22.6503L25.2944 15.0474C24.6705 15.4824 24.0709 15.7243 23.4944 15.7908C22.6854 15.8841 21.9672 15.6426 21.3411 15.3238C20.0889 14.6866 19.1049 13.8143 18.0305 13.8169L18.0306 13.8171ZM12.2078 14.1101C11.1462 14.1053 10.1229 15.0154 8.84418 15.6976C8.20481 16.0387 7.47613 16.3066 6.65236 16.2341C6.06537 16.1825 5.4557 15.9539 4.82506 15.5218L3.68605 23.0548C4.48387 23.8221 5.17105 23.9669 5.94742 23.8658C6.78338 23.7571 7.72469 23.2885 8.72512 22.8057C9.72555 22.3229 10.7941 21.8227 11.9734 21.7967C12.8274 21.778 13.7154 22.0434 14.5791 22.6958V15.2032C13.6267 14.1222 13.1275 14.1122 12.2078 14.11V14.1101ZM2.66254 16.3402L1.21047 25.6109L12.6307 26.3727V27.4859H17.527V26.3744L28.9838 25.6109L27.5319 16.3402L26.6219 16.4117L27.6143 22.6519L27.6401 22.8148L27.5722 22.9631C27.2933 23.5815 26.9426 24.0357 26.4992 24.3127C26.2848 24.4466 26.0545 24.531 25.8199 24.5781L25.8217 24.5891L25.7046 24.6001L25.6899 24.6019C25.6338 24.6099 25.5777 24.6146 25.5215 24.6184H25.5142L15.1503 25.6218L15.1045 25.6255L15.0606 25.6218L5.77539 24.9792H5.76988C5.5 24.9911 5.22625 24.9734 4.95133 24.9224C4.94957 24.9221 4.94764 24.9228 4.94582 24.9224C4.18293 24.7798 3.41277 24.3781 2.70461 23.6261L2.5215 23.4319L2.56193 23.1682L3.58176 16.4117L2.66254 16.3402V16.3402ZM19.0009 22.7453C17.9168 22.7582 16.7845 23.1366 15.5184 24.3639L15.381 24.4975L22.6796 23.7927C22.5071 23.7141 22.3343 23.6352 22.1577 23.5583C21.1466 23.1178 20.0852 22.7323 19.001 22.7453H19.0009ZM11.9972 22.8918C11.1238 22.911 10.1843 23.3183 9.20113 23.7927C9.00672 23.8864 8.80914 23.9828 8.61168 24.0783L14.883 24.5122L14.7236 24.3291C13.7222 23.1758 12.8706 22.8725 11.9972 22.8917V22.8918Z" fill="#E91E63"/>
</svg>
