<svg width="1139" height="325" viewBox="0 0 1139 325" fill="none" xmlns="http://www.w3.org/2000/svg">
<path d="M0 296.727V24.713C0 13.7002 8.903 4.75953 19.9157 4.71315L1111.29 0.116699C1124.93 0.059254 1134.63 13.3718 1130.38 26.3355L1037.86 309.129C1035.16 317.393 1027.43 322.964 1018.73 322.91L19.8762 316.727C8.87904 316.659 0 307.725 0 296.727Z" fill="#00A2DC"/>
<g clip-path="url(#clip0_735_10)">
<path d="M869.25 396.762H951.463C952.138 396.762 952.707 394.956 952.707 392.856V141.256C952.707 139.143 952.138 137.35 951.463 137.35H869.25C868.875 137.35 868.6 137.756 868.394 138.4L868.381 138.531C868.381 138.531 868.356 138.543 868.344 138.662C868.094 139.507 867.982 140.387 868.013 141.268V392.868C868.013 394.956 868.569 396.762 869.25 396.762Z" fill="#F4A670"/>
<path d="M906.437 396.762H951.993C952.38 396.762 952.687 394.956 952.687 392.856V141.256C952.687 139.143 952.374 137.35 951.993 137.35H906.443C906.237 137.35 906.08 137.756 905.98 138.4L905.968 138.531C905.968 138.531 905.955 138.543 905.943 138.662C905.802 139.523 905.741 140.396 905.762 141.268V392.868C905.762 394.956 906.062 396.762 906.437 396.762Z" fill="#A4806D"/>
<path d="M869.25 288.231H951.438C952.125 288.231 952.694 287.844 952.694 287.387V232.437C952.694 231.975 952.125 231.575 951.438 231.575H869.238C868.943 231.567 868.654 231.647 868.406 231.806L868.369 231.831L868.319 231.869C868.223 231.928 868.143 232.011 868.088 232.109C868.032 232.207 868.002 232.318 868 232.431V287.381C868 287.85 868.544 288.231 869.238 288.231" fill="#A4806D"/>
<path d="M845.688 67H775.019C740.225 67 712 105.575 712 153.144V258.156H782.669V153.144C782.669 105.575 810.875 67 845.688 67Z" fill="#7C9C9F"/>
<path d="M1010.27 67H845.687C810.875 67 782.688 105.575 782.688 153.144V258.156H1073.29V153.144C1073.29 105.575 1045.08 67 1010.29 67" fill="#1D1D1D"/>
<path d="M857.312 67H775.031C740.231 67 712.031 105.575 712.031 153.144V258.156H920.356V153.144C920.356 105.575 892.144 67 857.356 67" fill="#5CA241"/>
<path d="M1111.39 174.987C1111.42 175.024 1111.57 175.037 1111.57 175.074V250.468C1111.58 250.735 1111.52 251 1111.39 251.237C1111.39 251.237 1111.37 251.237 1111.37 251.249H1111.34C1111.26 251.405 1111.11 251.543 1110.94 251.543H1070.12C1069.76 251.543 1069.47 251.03 1069.47 250.399V209.355H945.5C944.144 209.355 942.969 209.112 942.969 208.843V175.005C942.969 174.712 944.144 174.48 945.5 174.48H1110.94C1111.12 174.48 1111.29 174.668 1111.39 174.924" fill="#EC2C5C"/>
<path d="M852.426 79H778.568C747.341 79 722 115.116 722 159.668V258H909V159.668C909 115.116 883.683 79 852.426 79Z" fill="#546869"/>
</g>
<defs>
<clipPath id="clip0_735_10">
<rect width="400" height="305" fill="white" transform="translate(712 20)"/>
</clipPath>
</defs>
</svg>
