<svg width="28" height="28" viewBox="0 0 28 28" fill="none" xmlns="http://www.w3.org/2000/svg">
<path fill-rule="evenodd" clip-rule="evenodd" d="M7.46621 0H20.5329V1.86667H26.1329V25.2C26.1329 25.9426 25.8379 26.6548 25.3128 27.1799C24.7877 27.705 24.0755 28 23.3329 28H4.66621C3.9236 28 3.21141 27.705 2.68631 27.1799C2.16121 26.6548 1.86621 25.9426 1.86621 25.2V1.86667H7.46621V0ZM9.33288 1.86667H18.6662V4.66667C18.6662 4.9142 18.5679 5.1516 18.3928 5.32663C18.2178 5.50167 17.9804 5.6 17.7329 5.6H10.2662C10.0187 5.6 9.78128 5.50167 9.60625 5.32663C9.43121 5.1516 9.33288 4.9142 9.33288 4.66667V1.86667ZM13.111 20.9664L20.3014 12.7475L18.8977 11.5192L13.0214 18.2355L9.99368 15.2059L8.67208 16.5275L13.111 20.9664Z" fill="#FBC600"/>
</svg>
