<svg width="28" height="28" viewBox="0 0 28 28" fill="none" xmlns="http://www.w3.org/2000/svg">
<path fill-rule="evenodd" clip-rule="evenodd" d="M16.6247 2.91667C16.6247 2.83931 16.5939 2.76513 16.5392 2.71043C16.4846 2.65573 16.4104 2.625 16.333 2.625H8.16634C7.31544 2.625 6.49939 2.96302 5.89771 3.5647C5.29603 4.16638 4.95801 4.98243 4.95801 5.83333V22.1667C4.95801 23.0176 5.29603 23.8336 5.89771 24.4353C6.49939 25.037 7.31544 25.375 8.16634 25.375H19.833C20.6839 25.375 21.5 25.037 22.1016 24.4353C22.7033 23.8336 23.0413 23.0176 23.0413 22.1667V10.6715C23.0413 10.5941 23.0106 10.52 22.9559 10.4653C22.9012 10.4106 22.827 10.3798 22.7497 10.3798H17.4997C17.2676 10.3798 17.0451 10.2876 16.881 10.1236C16.7169 9.95946 16.6247 9.7369 16.6247 9.50483V2.91667ZM17.4997 14.2917C17.7317 14.2917 17.9543 14.3839 18.1184 14.5479C18.2825 14.712 18.3747 14.9346 18.3747 15.1667C18.3747 15.3987 18.2825 15.6213 18.1184 15.7854C17.9543 15.9495 17.7317 16.0417 17.4997 16.0417H10.4997C10.2676 16.0417 10.0451 15.9495 9.88096 15.7854C9.71686 15.6213 9.62467 15.3987 9.62467 15.1667C9.62467 14.9346 9.71686 14.712 9.88096 14.5479C10.0451 14.3839 10.2676 14.2917 10.4997 14.2917H17.4997ZM17.4997 18.9583C17.7317 18.9583 17.9543 19.0505 18.1184 19.2146C18.2825 19.3787 18.3747 19.6013 18.3747 19.8333C18.3747 20.0654 18.2825 20.288 18.1184 20.4521C17.9543 20.6161 17.7317 20.7083 17.4997 20.7083H10.4997C10.2676 20.7083 10.0451 20.6161 9.88096 20.4521C9.71686 20.288 9.62467 20.0654 9.62467 19.8333C9.62467 19.6013 9.71686 19.3787 9.88096 19.2146C10.0451 19.0505 10.2676 18.9583 10.4997 18.9583H17.4997Z" fill="#0136B5"/>
<path fill-rule="evenodd" clip-rule="evenodd" d="M16.6667 3.29167C16.6667 3.21431 16.6359 3.14013 16.5812 3.08543C16.5265 3.03073 16.4524 3 16.375 3H8.20833C7.35743 3 6.54138 3.33802 5.9397 3.9397C5.33802 4.54138 5 5.35743 5 6.20833V22.5417C5 23.3926 5.33802 24.2086 5.9397 24.8103C6.54138 25.412 7.35743 25.75 8.20833 25.75H19.875C20.7259 25.75 21.542 25.412 22.1436 24.8103C22.7453 24.2086 23.0833 23.3926 23.0833 22.5417V11.0465C23.0833 10.9691 23.0526 10.895 22.9979 10.8403C22.9432 10.7856 22.869 10.7548 22.7917 10.7548H17.5417C17.3096 10.7548 17.087 10.6626 16.9229 10.4986C16.7589 10.3345 16.6667 10.1119 16.6667 9.87983V3.29167ZM17.5417 14.6667C17.7737 14.6667 17.9963 14.7589 18.1604 14.9229C18.3245 15.087 18.4167 15.3096 18.4167 15.5417C18.4167 15.7737 18.3245 15.9963 18.1604 16.1604C17.9963 16.3245 17.7737 16.4167 17.5417 16.4167H10.5417C10.3096 16.4167 10.087 16.3245 9.92295 16.1604C9.75885 15.9963 9.66667 15.7737 9.66667 15.5417C9.66667 15.3096 9.75885 15.087 9.92295 14.9229C10.087 14.7589 10.3096 14.6667 10.5417 14.6667H17.5417ZM17.5417 19.3333C17.7737 19.3333 17.9963 19.4255 18.1604 19.5896C18.3245 19.7537 18.4167 19.9763 18.4167 20.2083C18.4167 20.4404 18.3245 20.663 18.1604 20.8271C17.9963 20.9911 17.7737 21.0833 17.5417 21.0833H10.5417C10.3096 21.0833 10.087 20.9911 9.92295 20.8271C9.75885 20.663 9.66667 20.4404 9.66667 20.2083C9.66667 19.9763 9.75885 19.7537 9.92295 19.5896C10.087 19.4255 10.3096 19.3333 10.5417 19.3333H17.5417Z" fill="#0136B5"/>
<path d="M18.375 3.2947C18.375 3.08003 18.6002 2.94353 18.767 3.0777C18.9086 3.19203 19.0342 3.32503 19.1438 3.4767L22.659 8.3732C22.7383 8.4852 22.652 8.62986 22.5143 8.62986H18.6667C18.5893 8.62986 18.5151 8.59914 18.4604 8.54444C18.4057 8.48974 18.375 8.41555 18.375 8.3382V3.2947Z" fill="#0136B5"/>
</svg>
