<svg width="28" height="28" viewBox="0 0 28 28" fill="none" xmlns="http://www.w3.org/2000/svg">
<path d="M13.9997 2.33301C20.4432 2.33301 25.6663 7.55618 25.6663 13.9997C25.6663 20.4432 20.4432 25.6663 13.9997 25.6663C7.55618 25.6663 2.33301 20.4432 2.33301 13.9997C2.33301 7.55618 7.55618 2.33301 13.9997 2.33301ZM13.9997 6.99967C13.6903 6.99967 13.3935 7.12259 13.1747 7.34138C12.9559 7.56018 12.833 7.85692 12.833 8.16634V13.9997C12.8331 14.3091 12.956 14.6058 13.1748 14.8245L16.6748 18.3245C16.8949 18.537 17.1896 18.6546 17.4955 18.652C17.8014 18.6493 18.094 18.5266 18.3103 18.3103C18.5266 18.094 18.6493 17.8014 18.652 17.4955C18.6546 17.1896 18.537 16.8949 18.3245 16.6748L15.1663 13.5167V8.16634C15.1663 7.85692 15.0434 7.56018 14.8246 7.34138C14.6058 7.12259 14.3091 6.99967 13.9997 6.99967Z" fill="#5CA241"/>
</svg>
