<svg width="34" height="34" viewBox="0 0 34 34" fill="none" xmlns="http://www.w3.org/2000/svg">
<path d="M24.4375 13.8125H19.125V15.9375H24.4375V18.0625H20.1875C19.6239 18.0625 19.0834 18.2864 18.6849 18.6849C18.2864 19.0834 18.0625 19.6239 18.0625 20.1875V22.3125C18.0625 22.8761 18.2864 23.4166 18.6849 23.8151C19.0834 24.2136 19.6239 24.4375 20.1875 24.4375H26.5625V15.9375C26.5625 15.3739 26.3386 14.8334 25.9401 14.4349C25.5416 14.0364 25.0011 13.8125 24.4375 13.8125ZM24.4375 22.3125H20.1875V20.1875H24.4375V22.3125ZM13.8125 9.5625H9.5625C8.99891 9.5625 8.45841 9.78638 8.0599 10.1849C7.66138 10.5834 7.4375 11.1239 7.4375 11.6875V24.4375H9.5625V19.125H13.8125V24.4375H15.9375V11.6875C15.9375 11.1239 15.7136 10.5834 15.3151 10.1849C14.9166 9.78638 14.3761 9.5625 13.8125 9.5625ZM9.5625 17V11.6875H13.8125V17H9.5625Z" fill="white"/>
</svg>
