<svg width="228" height="393" viewBox="0 0 228 393" fill="none" xmlns="http://www.w3.org/2000/svg">
<g clip-path="url(#clip0_137_190)">
<path d="M-34.7246 205.647L-15.5763 -260.724L46.9709 -257.005L20.4789 104.505L-34.7246 205.647Z" stroke="#0136B5" stroke-width="2"/>
<path d="M61.5724 -256.137L115.12 -252.953L132.026 -251.838L119.005 -78.6874L45.4915 59.2003L61.5724 -256.137Z" stroke="#0136B5" stroke-width="2"/>
<path d="M75.7025 52.4181L215.713 54.5456L213.323 -14.9716L115.221 -20.8039L75.7025 52.4181Z" stroke="#0136B5" stroke-width="2"/>
<path d="M37.1525 126.603L218.831 152.718L216.189 75.8123L69.7967 67.1078L37.1525 126.603Z" stroke="#0136B5" stroke-width="2"/>
<path d="M-22.8232 239.329L221.93 243.852L219.202 163.584L25.0866 152.042L-22.8232 239.329Z" stroke="#0136B5" stroke-width="2"/>
<path d="M223.155 279.342L-37.1138 263.866L-41.4272 368.931L226.748 384.877L223.155 279.342Z" stroke="#0136B5" stroke-width="2"/>
</g>
<defs>
<clipPath id="clip0_137_190">
<rect width="652.121" height="268" fill="white" transform="translate(208.895 -267) rotate(88.3983)"/>
</clipPath>
</defs>
</svg>
