<svg width="172" height="62" viewBox="0 0 172 62" fill="none" xmlns="http://www.w3.org/2000/svg">
<g opacity="0.17" clip-path="url(#clip0_238_225)">
<path d="M135.405 84.2341L0.269972 74.1973L1.78065 53.7601L106.451 65.3521L135.405 84.2341Z" stroke="#0136B5" stroke-width="2"/>
<path d="M4.23804 20.51L5.70449 0.672496L45.9605 25.7504L4.23804 20.51Z" stroke="#0136B5" stroke-width="2"/>
<path d="M2.13224 48.989L3.42585 31.4926L3.86593 25.9694L53.997 31.6303L93.4823 56.8009L2.13224 48.989Z" stroke="#0136B5" stroke-width="2"/>
<path d="M21.4322 1.90887L64.7826 30.3502L66.9217 1.41886L21.4322 1.90887Z" stroke="#0136B5" stroke-width="2"/>
<path d="M91.7251 46.8598L93.3096 1.06161L73.1301 1.28164L70.7607 33.3363L91.7251 46.8598Z" stroke="#0136B5" stroke-width="2"/>
<path d="M112.974 60.0744L121.804 0.835317L99.4794 1.07789L95.9432 48.9112L112.974 60.0744Z" stroke="#0136B5" stroke-width="2"/>
<path d="M145.255 80.6117L148.258 0.557947L124.959 0.801587L120.27 64.2285L145.255 80.6117Z" stroke="#0136B5" stroke-width="2"/>
<path d="M158.562 0.444509L152.275 85.4868L182.718 87.7478L189.196 0.122074L158.562 0.444509Z" stroke="#0136B5" stroke-width="2"/>
</g>
<defs>
<clipPath id="clip0_238_225">
<rect width="189.196" height="87.7241" fill="white" transform="translate(0 0.693359) rotate(-0.210103)"/>
</clipPath>
</defs>
</svg>
