<svg width="448" height="209" viewBox="0 0 448 209" fill="none" xmlns="http://www.w3.org/2000/svg">
<g opacity="0.33" clip-path="url(#clip0_343_837)">
<path d="M413.665 257.338L0.823416 226.675L5.43859 164.239L325.21 199.653L413.665 257.338Z" stroke="#0136B5" stroke-width="2"/>
<path d="M12.9484 62.6589L17.4284 2.05475L140.412 78.6686L12.9484 62.6589Z" stroke="#0136B5" stroke-width="2"/>
<path d="M6.51616 149.665L10.4682 96.2129L11.8127 79.3395L164.965 96.6338L285.594 173.531L6.51616 149.665Z" stroke="#0136B5" stroke-width="2"/>
<path d="M65.4784 5.83335L197.915 92.7226L204.45 4.33636L65.4784 5.83335Z" stroke="#0136B5" stroke-width="2"/>
<path d="M280.222 143.16L285.062 3.24519L223.414 3.91738L216.175 101.845L280.222 143.16Z" stroke="#0136B5" stroke-width="2"/>
<path d="M345.142 183.531L372.117 2.55396L303.916 3.29502L293.113 149.427L345.142 183.531Z" stroke="#0136B5" stroke-width="2"/>
<path d="M443.761 246.274L452.935 1.7066L381.753 2.45093L367.429 196.222L443.761 246.274Z" stroke="#0136B5" stroke-width="2"/>
</g>
<defs>
<clipPath id="clip0_343_837">
<rect width="578" height="268" fill="white" transform="translate(0 2.11914) rotate(-0.210103)"/>
</clipPath>
</defs>
</svg>
