<svg width="322" height="132" viewBox="0 0 322 132" fill="none" xmlns="http://www.w3.org/2000/svg">
<g opacity="0.3" clip-path="url(#clip0_176_127)">
<path d="M124.985 9.66183L437.115 32.8445L433.625 80.0494L191.862 53.2746L124.985 9.66183Z" stroke="#0136B5" stroke-width="2"/>
<path d="M432.811 91.068L429.823 131.481L428.806 144.238L313.016 131.162L221.814 73.0244L432.811 91.068Z" stroke="#0136B5" stroke-width="2"/>
<path d="M388.232 199.812L288.104 134.119L283.163 200.944L388.232 199.812Z" stroke="#0136B5" stroke-width="2"/>
<path d="M225.875 95.9857L222.216 201.769L268.825 201.26L274.298 127.222L225.875 95.9857Z" stroke="#0136B5" stroke-width="2"/>
<path d="M176.793 65.4632L156.398 202.291L207.962 201.731L216.13 91.2476L176.793 65.4632Z" stroke="#0136B5" stroke-width="2"/>
<path d="M102.231 18.0275L95.2949 202.932L149.112 202.37L159.942 55.8688L102.231 18.0275Z" stroke="#0136B5" stroke-width="2"/>
<path d="M71.5005 203.194L86.022 6.76723L15.7045 1.54489L0.742083 203.939L71.5005 203.194Z" stroke="#0136B5" stroke-width="2"/>
</g>
<defs>
<clipPath id="clip0_176_127">
<rect width="436.997" height="202.622" fill="white" transform="translate(437.737 202.62) rotate(179.79)"/>
</clipPath>
</defs>
</svg>
