<svg width="180" height="52" viewBox="0 0 180 52" fill="none" xmlns="http://www.w3.org/2000/svg">
<g opacity="0.3" clip-path="url(#clip0_640_110)">
<path d="M63.8233 4.93391L223.21 16.772L221.428 40.8768L97.9734 27.2044L63.8233 4.93391Z" stroke="#0136B5" stroke-width="2"/>
<path d="M221.012 46.5033L219.486 67.1396L218.967 73.654L159.839 66.9772L113.268 37.2895L221.012 46.5033Z" stroke="#0136B5" stroke-width="2"/>
<path d="M115.342 49.0143L113.473 103.031L137.274 102.772L140.069 64.9648L115.342 49.0143Z" stroke="#0136B5" stroke-width="2"/>
<path d="M90.278 33.4289L79.8636 103.299L106.194 103.013L110.365 46.5955L90.278 33.4289Z" stroke="#0136B5" stroke-width="2"/>
<path d="M52.2031 9.20546L48.6611 103.626L76.1424 103.338L81.6728 28.5288L52.2031 9.20546Z" stroke="#0136B5" stroke-width="2"/>
<path d="M36.511 103.761L43.9263 3.45658L8.0192 0.789837L0.378743 104.141L36.511 103.761Z" stroke="#0136B5" stroke-width="2"/>
</g>
<defs>
<clipPath id="clip0_640_110">
<rect width="223.149" height="103.467" fill="white" transform="translate(223.527 103.467) rotate(179.79)"/>
</clipPath>
</defs>
</svg>
