<svg width="40" height="40" viewBox="0 0 40 40" fill="none" xmlns="http://www.w3.org/2000/svg">
<path d="M20.0007 36.6663C17.7229 36.6663 15.5701 36.2286 13.5423 35.353C11.5145 34.4775 9.74398 33.283 8.23065 31.7697C6.71732 30.2563 5.52287 28.4858 4.64732 26.458C3.77176 24.4302 3.33398 22.2775 3.33398 19.9997C3.33398 17.6941 3.78565 15.5275 4.68898 13.4997C5.59232 11.4719 6.81454 9.70801 8.35565 8.20801C9.89676 6.70801 11.6951 5.52079 13.7507 4.64634C15.8062 3.7719 18.0007 3.33412 20.334 3.33301C22.5562 3.33301 24.6534 3.71523 26.6257 4.47967C28.5979 5.24412 30.3273 6.29967 31.814 7.64634C33.3006 8.99301 34.4812 10.5902 35.3556 12.438C36.2301 14.2858 36.6673 16.2786 36.6673 18.4163C36.6673 21.6108 35.6951 24.0625 33.7507 25.7713C31.8062 27.4802 29.4451 28.3341 26.6673 28.333H23.584C23.334 28.333 23.1607 28.4025 23.064 28.5413C22.9673 28.6802 22.9184 28.833 22.9173 28.9997C22.9173 29.333 23.1257 29.8125 23.5423 30.438C23.959 31.0636 24.1673 31.7786 24.1673 32.583C24.1673 33.9719 23.7857 34.9997 23.0223 35.6663C22.259 36.333 21.2518 36.6663 20.0007 36.6663ZM10.834 21.6663C11.5562 21.6663 12.1534 21.4302 12.6257 20.958C13.0979 20.4858 13.334 19.8886 13.334 19.1663C13.334 18.4441 13.0979 17.8469 12.6257 17.3747C12.1534 16.9025 11.5562 16.6663 10.834 16.6663C10.1118 16.6663 9.51454 16.9025 9.04232 17.3747C8.5701 17.8469 8.33398 18.4441 8.33398 19.1663C8.33398 19.8886 8.5701 20.4858 9.04232 20.958C9.51454 21.4302 10.1118 21.6663 10.834 21.6663ZM15.834 14.9997C16.5562 14.9997 17.1534 14.7636 17.6257 14.2913C18.0979 13.8191 18.334 13.2219 18.334 12.4997C18.334 11.7775 18.0979 11.1802 17.6257 10.708C17.1534 10.2358 16.5562 9.99967 15.834 9.99967C15.1118 9.99967 14.5145 10.2358 14.0423 10.708C13.5701 11.1802 13.334 11.7775 13.334 12.4997C13.334 13.2219 13.5701 13.8191 14.0423 14.2913C14.5145 14.7636 15.1118 14.9997 15.834 14.9997ZM24.1673 14.9997C24.8895 14.9997 25.4868 14.7636 25.959 14.2913C26.4312 13.8191 26.6673 13.2219 26.6673 12.4997C26.6673 11.7775 26.4312 11.1802 25.959 10.708C25.4868 10.2358 24.8895 9.99967 24.1673 9.99967C23.4451 9.99967 22.8479 10.2358 22.3757 10.708C21.9034 11.1802 21.6673 11.7775 21.6673 12.4997C21.6673 13.2219 21.9034 13.8191 22.3757 14.2913C22.8479 14.7636 23.4451 14.9997 24.1673 14.9997ZM29.1673 21.6663C29.8895 21.6663 30.4868 21.4302 30.959 20.958C31.4312 20.4858 31.6673 19.8886 31.6673 19.1663C31.6673 18.4441 31.4312 17.8469 30.959 17.3747C30.4868 16.9025 29.8895 16.6663 29.1673 16.6663C28.4451 16.6663 27.8479 16.9025 27.3756 17.3747C26.9034 17.8469 26.6673 18.4441 26.6673 19.1663C26.6673 19.8886 26.9034 20.4858 27.3756 20.958C27.8479 21.4302 28.4451 21.6663 29.1673 21.6663Z" fill="#EC7D00"/>
</svg>
