<svg width="40" height="40" viewBox="0 0 40 40" fill="none" xmlns="http://www.w3.org/2000/svg">
<path d="M20.0007 36.6663C17.6951 36.6663 15.5284 36.2286 13.5007 35.353C11.4729 34.4775 9.70899 33.2902 8.20899 31.7913C6.70899 30.2925 5.52176 28.5286 4.64732 26.4997C3.77288 24.4708 3.3351 22.3041 3.33399 19.9997C3.33288 17.6952 3.77065 15.5286 4.64732 13.4997C5.52399 11.4708 6.71121 9.7069 8.20899 8.20801C9.70676 6.70912 11.4707 5.5219 13.5007 4.64634C15.5307 3.77079 17.6973 3.33301 20.0007 3.33301C22.304 3.33301 24.4707 3.77079 26.5007 4.64634C28.5307 5.5219 30.2945 6.70912 31.7923 8.20801C33.2901 9.7069 34.4779 11.4708 35.3557 13.4997C36.2334 15.5286 36.6707 17.6952 36.6673 19.9997C36.664 22.3041 36.2262 24.4708 35.354 26.4997C34.4818 28.5286 33.2945 30.2925 31.7923 31.7913C30.2901 33.2902 28.5262 34.478 26.5007 35.3547C24.4751 36.2313 22.3084 36.6686 20.0007 36.6663ZM20.0007 33.333C23.7229 33.333 26.8757 32.0413 29.459 29.458C32.0423 26.8747 33.334 23.7219 33.334 19.9997C33.334 19.8052 33.3273 19.6036 33.314 19.3947C33.3007 19.1858 33.2934 19.0125 33.2923 18.8747C33.1534 19.6802 32.7784 20.3469 32.1673 20.8747C31.5562 21.4025 30.834 21.6663 30.0007 21.6663H26.6673C25.7507 21.6663 24.9662 21.3402 24.314 20.688C23.6618 20.0358 23.3351 19.2508 23.334 18.333V16.6663H16.6673V13.333C16.6673 12.4163 16.994 11.6319 17.6473 10.9797C18.3007 10.3275 19.0851 10.0008 20.0007 9.99967H21.6673C21.6673 9.36079 21.8412 8.79856 22.189 8.31301C22.5368 7.82745 22.9601 7.43134 23.459 7.12467C22.9034 6.98579 22.3412 6.87467 21.7723 6.79134C21.2034 6.70801 20.6129 6.66634 20.0007 6.66634C16.2784 6.66634 13.1257 7.95801 10.5423 10.5413C7.95899 13.1247 6.66732 16.2775 6.66732 19.9997H15.0007C16.834 19.9997 18.4034 20.6525 19.709 21.958C21.0145 23.2636 21.6673 24.833 21.6673 26.6663V28.333H16.6673V32.9163C17.2229 33.0552 17.7718 33.1597 18.314 33.2297C18.8562 33.2997 19.4184 33.3341 20.0007 33.333Z" fill="#00A2DC"/>
</svg>
