<svg width="26" height="26" viewBox="0 0 26 26" fill="none" xmlns="http://www.w3.org/2000/svg">
<path d="M15.1786 5.00929C16.0137 5.93278 16.6086 7.04769 16.9107 8.25557C17.2128 9.46345 17.2128 10.7271 16.9108 11.935L16.8339 12.2189L20.5173 16.9563C20.8274 17.3549 21.0289 17.8271 21.1024 18.3267C21.1759 18.8264 21.1187 19.3366 20.9365 19.8076C21.0667 19.8441 21.2036 19.8497 21.3363 19.8239L21.4663 19.7914C21.7376 19.7048 22.0321 19.7286 22.2861 19.8576C22.5401 19.9866 22.733 20.2104 22.8231 20.4806C22.9133 20.7507 22.8934 21.0456 22.7678 21.3012C22.6422 21.5568 22.421 21.7527 22.152 21.8465C21.4476 22.0885 20.6785 22.0599 19.994 21.7663C19.7809 21.6762 19.5788 21.5621 19.3917 21.4261C18.9426 21.6245 18.4507 21.7067 17.9615 21.6651C17.4723 21.6234 17.0014 21.4593 16.5923 21.1878L16.4147 21.0589L11.6783 17.3755C10.4356 17.7382 9.12071 17.7767 7.8589 17.4873C6.59708 17.1979 5.43036 16.5903 4.46984 15.7224C6.78466 14.5925 8.89501 13.0848 10.7142 11.2612C12.5395 9.44034 14.0484 7.32666 15.1786 5.00929ZM13.4539 3.59013C12.4085 5.87509 10.9617 7.95405 9.18234 9.72829C7.40912 11.5061 5.33167 12.9517 3.0485 13.9966C2.17966 12.5461 1.82027 10.8469 2.02739 9.16883C2.23452 7.49075 2.99629 5.92994 4.19176 4.73423C5.38722 3.53851 6.94787 2.77642 8.62592 2.56894C10.304 2.36146 12.0032 2.72158 13.4539 3.59013Z" fill="#0136B5"/>
</svg>
