<svg width="40" height="40" viewBox="0 0 40 40" fill="none" xmlns="http://www.w3.org/2000/svg">
<path fill-rule="evenodd" clip-rule="evenodd" d="M26.1368 5.46968C26.7268 4.88 27.5166 4.53301 28.35 4.49721C29.1834 4.46142 30 4.73943 30.6384 5.27634L30.8501 5.46968L32.0284 6.64968C32.6179 7.23944 32.9649 8.02871 33.001 8.86176C33.0371 9.69481 32.7597 10.5111 32.2234 11.1497L32.0301 11.363L30.8501 12.5413C30.7485 12.6426 30.6405 12.7373 30.5268 12.8247C30.6726 13.3475 30.6885 13.898 30.5732 14.4284C30.4579 14.9587 30.2148 15.4529 29.8651 15.868L29.6718 16.0763L28.0218 17.7263C29.1681 18.743 30.0856 19.9912 30.714 21.3886C31.3423 22.7861 31.667 24.3008 31.6668 25.833C31.6668 28.573 30.6501 31.0747 28.9734 32.983L28.6501 33.333H33.3334C33.7582 33.3335 34.1668 33.4961 34.4757 33.7878C34.7846 34.0794 34.9705 34.4779 34.9954 34.902C35.0203 35.3261 34.8823 35.7436 34.6097 36.0694C34.337 36.3952 33.9503 36.6045 33.5284 36.6547L33.3334 36.6663H6.66677C6.24197 36.6659 5.83339 36.5032 5.52449 36.2116C5.2156 35.92 5.02972 35.5214 5.00482 35.0974C4.97992 34.6733 5.1179 34.2557 5.39055 33.93C5.6632 33.6042 6.04995 33.3948 6.47177 33.3447L6.66677 33.333H20.8334C22.3381 33.3332 23.8081 32.8808 25.0523 32.0346C26.2964 31.1884 27.2573 29.9875 27.81 28.588C28.3628 27.1885 28.4817 25.6551 28.1515 24.1871C27.8213 22.7191 27.0572 21.3844 25.9584 20.3563L25.6584 20.0897L20.2434 25.5063C19.6535 26.0956 18.8641 26.4423 18.031 26.478C17.198 26.5138 16.3818 26.2361 15.7434 25.6997L15.5301 25.5047L11.9951 21.9697C11.4052 21.3798 11.0579 20.5902 11.0218 19.7568C10.9857 18.9233 11.2634 18.1067 11.8001 17.468L11.9951 17.2563L21.4234 7.82801C21.8409 7.41041 22.3618 7.1112 22.9328 6.96097C23.5038 6.81075 24.1045 6.8149 24.6734 6.97301L24.8101 6.80634L24.9584 6.64968L26.1368 5.46968ZM10.8168 23.1497L14.3501 26.6847C14.5094 26.8383 14.6365 27.0221 14.724 27.2254C14.8115 27.4287 14.8576 27.6473 14.8597 27.8686C14.8618 28.0899 14.8197 28.3094 14.7361 28.5143C14.6524 28.7192 14.5288 28.9054 14.3724 29.062C14.2161 29.2186 14.0301 29.3425 13.8253 29.4264C13.6205 29.5103 13.4011 29.5527 13.1798 29.5509C12.9585 29.5491 12.7398 29.5033 12.5364 29.4161C12.333 29.3289 12.149 29.2021 11.9951 29.043L8.45844 25.5063C8.3037 25.3515 8.18097 25.1677 8.09727 24.9654C8.01357 24.7631 7.97053 24.5463 7.9706 24.3274C7.97068 24.1085 8.01387 23.8918 8.09772 23.6895C8.18157 23.4873 8.30442 23.3036 8.45927 23.1488C8.61412 22.9941 8.79794 22.8714 9.00022 22.7877C9.2025 22.704 9.41928 22.6609 9.6382 22.661C9.85711 22.6611 10.0739 22.7043 10.2761 22.7881C10.4783 22.872 10.662 22.9948 10.8168 23.1497ZM28.4934 7.82968L27.3151 9.00801L28.4934 10.1863L29.6718 9.00801L28.4934 7.82968Z" fill="#5CA241"/>
</svg>
