<svg width="30" height="30" viewBox="0 0 30 30" fill="none" xmlns="http://www.w3.org/2000/svg">
<g clip-path="url(#clip0_315_507)">
<path d="M30.0001 8.55007V6.73757C30.0001 6.00823 29.7104 5.30875 29.1946 4.79303C28.6789 4.2773 27.9794 3.98757 27.2501 3.98757H23.8876L23.5501 1.93757C23.4607 1.39344 23.1798 0.899159 22.758 0.543892C22.3363 0.188625 21.8015 -0.00424432 21.2501 7.08707e-05H16.7126C16.1633 -0.00126088 15.6315 0.192962 15.2124 0.547965C14.7932 0.902968 14.5142 1.39557 14.4251 1.93757L14.0876 3.98757H10.7251C9.99574 3.98757 9.29626 4.2773 8.78054 4.79303C8.26481 5.30875 7.97508 6.00823 7.97508 6.73757V8.55007H30.0001ZM16.2501 2.30007C16.2679 2.19746 16.3218 2.10459 16.402 2.03814C16.4822 1.97169 16.5834 1.93603 16.6876 1.93757H21.2501C21.3542 1.93603 21.4555 1.97169 21.5357 2.03814C21.6159 2.10459 21.6697 2.19746 21.6876 2.30007L21.9751 4.05007H15.9751L16.2501 2.30007ZM19.9251 10.4251V12.2501C19.9251 12.4987 19.8263 12.7372 19.6505 12.913C19.4747 13.0888 19.2362 13.1876 18.9876 13.1876C18.7389 13.1876 18.5005 13.0888 18.3247 12.913C18.1489 12.7372 18.0501 12.4987 18.0501 12.2501V10.4251H7.97508V16.3751C7.97508 16.7362 8.04621 17.0938 8.18441 17.4274C8.32261 17.7611 8.52518 18.0643 8.78054 18.3196C9.0359 18.575 9.33906 18.7775 9.6727 18.9157C10.0063 19.0539 10.3639 19.1251 10.7251 19.1251H27.2501C27.9794 19.1251 28.6789 18.8353 29.1946 18.3196C29.7104 17.8039 30.0001 17.1044 30.0001 16.3751V10.4251H19.9251ZM21.4876 23.6126L17.7376 24.8626C17.6889 24.8598 17.6405 24.8714 17.5983 24.8958C17.5561 24.9203 17.5219 24.9565 17.5001 25.0001C17.3274 25.3748 17.0505 25.6918 16.7025 25.9135C16.3546 26.1351 15.9502 26.252 15.5376 26.2501H11.2501C11.1075 26.2501 10.9708 26.1934 10.87 26.0926C10.7692 25.9918 10.7126 25.8551 10.7126 25.7126C10.7126 25.57 10.7692 25.4333 10.87 25.3325C10.9708 25.2317 11.1075 25.1751 11.2501 25.1751H15.5501C15.8352 25.1751 16.1086 25.0618 16.3102 24.8602C16.5118 24.6586 16.6251 24.3852 16.6251 24.1001C16.6251 23.815 16.5118 23.5415 16.3102 23.3399C16.1086 23.1383 15.8352 23.0251 15.5501 23.0251H11.8001C10.5605 22.0764 9.05956 21.531 7.50008 21.4626H5.31258C4.64379 21.4658 3.98486 21.6241 3.38758 21.9251L0.150084 23.5376C0.110139 23.5587 0.07574 23.589 0.049678 23.6259C0.0236159 23.6628 0.00662496 23.7054 8.36971e-05 23.7501V29.5376C-0.00113914 29.586 0.0110581 29.6338 0.0353256 29.6757C0.0595931 29.7176 0.0949847 29.752 0.137584 29.7751C0.179389 29.7992 0.226811 29.8119 0.275084 29.8119C0.323356 29.8119 0.370778 29.7992 0.412584 29.7751L3.86258 27.6251C3.99817 27.5377 4.15132 27.4812 4.31117 27.4596C4.47102 27.438 4.63367 27.4518 4.78758 27.5001C15.4876 31.1126 11.9126 31.1251 23.9751 25.0001C24.0585 24.9592 24.1303 24.8979 24.1836 24.8219C24.237 24.7458 24.2702 24.6575 24.2802 24.5651C24.2902 24.4728 24.2766 24.3794 24.2407 24.2937C24.2049 24.208 24.1479 24.1328 24.0751 24.0751C23.7183 23.785 23.2937 23.5904 22.8411 23.5095C22.3885 23.4286 21.9227 23.464 21.4876 23.6126Z" fill="#5CA241"/>
</g>
<defs>
<clipPath id="clip0_315_507">
<rect width="30" height="30" fill="white"/>
</clipPath>
</defs>
</svg>
