<svg width="40" height="40" viewBox="0 0 40 40" fill="none" xmlns="http://www.w3.org/2000/svg">
<path d="M19.9993 11.667C23.5356 11.667 26.927 13.0718 29.4274 15.5723C31.9279 18.0728 33.3327 21.4641 33.3327 25.0004C33.3327 28.5366 31.9279 31.928 29.4274 34.4285C26.927 36.9289 23.5356 38.3337 19.9993 38.3337C16.4631 38.3337 13.0717 36.9289 10.5713 34.4285C8.07077 31.928 6.66602 28.5366 6.66602 25.0004C6.66602 21.4641 8.07077 18.0728 10.5713 15.5723C13.0717 13.0718 16.4631 11.667 19.9993 11.667ZM19.9993 17.5004L17.796 21.967L12.866 22.6837L16.4327 26.1587L15.591 31.0687L19.9993 28.7504L24.4077 31.067L23.566 26.1587L27.1327 22.682L22.2027 21.9654L19.9993 17.5004ZM21.666 3.33203L29.9993 3.3337V8.3337L27.7277 10.2304C25.843 9.24055 23.7846 8.62479 21.666 8.41703V3.33203ZM18.3327 3.33203V8.41536C16.2146 8.62333 14.1568 9.23909 12.2727 10.2287L9.99935 8.3337V3.3337L18.3327 3.33203Z" fill="#E91E63"/>
</svg>
