<svg width="25" height="26" viewBox="0 0 25 26" fill="none" xmlns="http://www.w3.org/2000/svg">
<path d="M20.8333 18.208C21.3859 18.208 21.9158 17.9885 22.3065 17.5978C22.6972 17.2071 22.9167 16.6772 22.9167 16.1247V4.66634C22.9167 4.11381 22.6972 3.5839 22.3065 3.1932C21.9158 2.8025 21.3859 2.58301 20.8333 2.58301H9.85417C10.2188 3.21842 10.4167 3.93717 10.4167 4.66634H20.8333V16.1247H11.4583V18.208M15.625 7.79134V9.87467H9.375V23.4163H7.29167V17.1663H5.20833V23.4163H3.125V15.083H1.5625V9.87467C1.5625 9.32214 1.78199 8.79224 2.17269 8.40154C2.56339 8.01083 3.0933 7.79134 3.64583 7.79134H15.625ZM8.33333 4.66634C8.33333 5.21888 8.11384 5.74878 7.72314 6.13948C7.33244 6.53018 6.80253 6.74967 6.25 6.74967C5.69747 6.74967 5.16756 6.53018 4.77686 6.13948C4.38616 5.74878 4.16667 5.21888 4.16667 4.66634C4.16667 4.11381 4.38616 3.5839 4.77686 3.1932C5.16756 2.8025 5.69747 2.58301 6.25 2.58301C6.80253 2.58301 7.33244 2.8025 7.72314 3.1932C8.11384 3.5839 8.33333 4.11381 8.33333 4.66634Z" fill="#E91E63"/>
</svg>
