<svg width="50" height="50" viewBox="0 0 50 50" fill="none" xmlns="http://www.w3.org/2000/svg">
<path d="M24.9993 4.16602C13.4993 4.16602 4.16602 13.4993 4.16602 24.9993C4.16602 36.4993 13.4993 45.8327 24.9993 45.8327C36.4993 45.8327 45.8327 36.4993 45.8327 24.9993C45.8327 13.4993 36.4993 4.16602 24.9993 4.16602ZM34.666 18.3327C34.3535 21.6243 32.9993 29.6243 32.3118 33.3118C32.0202 34.8743 31.4368 35.3952 30.8952 35.4577C29.6868 35.5618 28.7702 34.666 27.6035 33.8952C25.7702 32.6868 24.7285 31.9368 22.9577 30.7702C20.8952 29.416 22.2285 28.666 23.416 27.4577C23.7285 27.1452 29.0618 22.291 29.166 21.8535C29.1805 21.7873 29.1786 21.7185 29.1604 21.6531C29.1423 21.5878 29.1084 21.5278 29.0618 21.4785C28.9368 21.3743 28.7702 21.416 28.6243 21.4368C28.4368 21.4785 25.5202 23.416 19.8327 27.2493C18.9993 27.8118 18.2493 28.1035 17.5827 28.0827C16.8327 28.0618 15.416 27.666 14.3535 27.3118C13.041 26.8952 12.0202 26.666 12.1035 25.9368C12.1452 25.5618 12.666 25.1868 13.6452 24.791C19.7285 22.1452 23.7702 20.3952 25.791 19.5618C31.5827 17.1452 32.7702 16.7285 33.5618 16.7285C33.7285 16.7285 34.1243 16.7702 34.3743 16.9785C34.5827 17.1452 34.6452 17.3743 34.666 17.541C34.6452 17.666 34.6868 18.041 34.666 18.3327Z" fill="white"/>
</svg>
