<svg width="33" height="33" viewBox="0 0 33 33" fill="none" xmlns="http://www.w3.org/2000/svg">
<path d="M16.5 2.75C8.91 2.75 2.75 8.91 2.75 16.5C2.75 24.09 8.91 30.25 16.5 30.25C24.09 30.25 30.25 24.09 30.25 16.5C30.25 8.91 24.09 2.75 16.5 2.75ZM22.88 12.1C22.6737 14.2725 21.78 19.5525 21.3263 21.9862C21.1338 23.0175 20.7488 23.3612 20.3913 23.4025C19.5938 23.4713 18.9888 22.88 18.2188 22.3713C17.0087 21.5738 16.3213 21.0788 15.1525 20.3088C13.7913 19.415 14.6712 18.92 15.455 18.1225C15.6613 17.9163 19.1812 14.7125 19.25 14.4237C19.2596 14.38 19.2583 14.3346 19.2463 14.2915C19.2343 14.2483 19.212 14.2088 19.1812 14.1763C19.0987 14.1075 18.9888 14.135 18.8925 14.1488C18.7687 14.1762 16.8438 15.455 13.09 17.985C12.54 18.3562 12.045 18.5487 11.605 18.535C11.11 18.5212 10.175 18.26 9.47375 18.0262C8.6075 17.7512 7.93375 17.6 7.98875 17.1187C8.01625 16.8713 8.36 16.6237 9.00625 16.3625C13.0213 14.6162 15.6888 13.4613 17.0225 12.9113C20.845 11.3163 21.6288 11.0412 22.1513 11.0412C22.2613 11.0412 22.5225 11.0687 22.6875 11.2062C22.825 11.3162 22.8662 11.4675 22.88 11.5775C22.8662 11.66 22.8937 11.9075 22.88 12.1Z" fill="#00A2DC"/>
</svg>
