<svg width="30" height="30" viewBox="0 0 30 30" fill="none" xmlns="http://www.w3.org/2000/svg">
<path fill-rule="evenodd" clip-rule="evenodd" d="M25.6872 7.85586C26.2684 8.36961 26.3228 9.25836 25.8091 9.84336L15.0278 22.0309C14.9033 22.1716 14.7518 22.286 14.5824 22.3673C14.4129 22.4485 14.2289 22.495 14.0411 22.5039C13.8534 22.5128 13.6658 22.484 13.4894 22.4192C13.313 22.3544 13.1513 22.2548 13.0141 22.1265L5.98281 15.564C5.71231 15.3091 5.55374 14.9574 5.54175 14.5859C5.52976 14.2145 5.66532 13.8533 5.91881 13.5815C6.17231 13.3097 6.5231 13.1493 6.89452 13.1353C7.26594 13.1214 7.62778 13.255 7.90093 13.5071L13.8822 19.0759L23.7072 7.97586C23.8297 7.83728 23.9783 7.72423 24.1446 7.64318C24.3108 7.56214 24.4914 7.51468 24.676 7.50353C24.8607 7.49239 25.0457 7.51777 25.2205 7.57823C25.3953 7.63868 25.5564 7.73303 25.6947 7.85586H25.6872Z" fill="#E91E63"/>
</svg>
