<svg width="22" height="16" viewBox="0 0 22 16" fill="none" xmlns="http://www.w3.org/2000/svg">
<path fill-rule="evenodd" clip-rule="evenodd" d="M20.6872 0.855855C21.2684 1.36961 21.3228 2.25836 20.8091 2.84336L10.0278 15.0309C9.9033 15.1716 9.75183 15.286 9.58236 15.3673C9.41289 15.4485 9.22885 15.495 9.04112 15.5039C8.85339 15.5128 8.66578 15.484 8.48937 15.4192C8.31297 15.3544 8.15134 15.2548 8.01405 15.1265L0.982805 8.56398C0.712312 8.30907 0.553739 7.95743 0.541748 7.58594C0.529758 7.21446 0.665324 6.85333 0.918815 6.5815C1.17231 6.30967 1.5231 6.14926 1.89452 6.13532C2.26594 6.12138 2.62778 6.25504 2.90093 6.5071L8.88218 12.0759L18.7072 0.975856C18.8297 0.837282 18.9783 0.724233 19.1446 0.643185C19.3108 0.562136 19.4914 0.51468 19.676 0.503533C19.8607 0.492386 20.0457 0.517768 20.2205 0.578225C20.3953 0.638682 20.5564 0.733026 20.6947 0.855855H20.6872Z" fill="#E91E63"/>
</svg>
