<svg width="18" height="18" viewBox="0 0 18 18" fill="none" xmlns="http://www.w3.org/2000/svg">
<path fill-rule="evenodd" clip-rule="evenodd" d="M15.4129 4.7139C15.7616 5.02215 15.7943 5.5554 15.486 5.9064L9.01727 13.2189C8.94256 13.3034 8.85168 13.372 8.75 13.4208C8.64832 13.4695 8.5379 13.4974 8.42526 13.5027C8.31262 13.5081 8.20005 13.4908 8.09421 13.4519C7.98837 13.413 7.89139 13.3533 7.80902 13.2763L3.59027 9.33878C3.42797 9.18583 3.33283 8.97485 3.32563 8.75196C3.31844 8.52906 3.39978 8.31239 3.55187 8.14929C3.70397 7.9862 3.91445 7.88995 4.1373 7.88158C4.36015 7.87322 4.57725 7.95342 4.74114 8.10465L8.32989 11.4459L14.2249 4.7859C14.2984 4.70276 14.3876 4.63493 14.4873 4.5863C14.5871 4.53767 14.6954 4.5092 14.8062 4.50251C14.917 4.49582 15.028 4.51105 15.1329 4.54733C15.2377 4.5836 15.3344 4.64021 15.4174 4.7139H15.4129Z" fill="#FBC600"/>
</svg>
