<svg width="25" height="25" viewBox="0 0 25 25" fill="none" xmlns="http://www.w3.org/2000/svg">
<path fill-rule="evenodd" clip-rule="evenodd" d="M21.4066 6.54671C21.891 6.97483 21.9363 7.71546 21.5082 8.20296L12.5238 18.3592C12.4201 18.4765 12.2938 18.5719 12.1526 18.6396C12.0114 18.7073 11.858 18.746 11.7016 18.7534C11.5451 18.7608 11.3888 18.7368 11.2418 18.6828C11.0948 18.6288 10.9601 18.5459 10.8457 18.4389L4.98632 12.9701C4.76091 12.7577 4.62877 12.4647 4.61877 12.1551C4.60878 11.8455 4.72175 11.5446 4.933 11.3181C5.14424 11.0916 5.43657 10.9579 5.74609 10.9463C6.0556 10.9346 6.35713 11.046 6.58476 11.2561L11.5691 15.8967L19.7566 6.64671C19.8587 6.53123 19.9826 6.43702 20.1211 6.36948C20.2597 6.30194 20.4102 6.2624 20.564 6.25311C20.7179 6.24382 20.872 6.26497 21.0177 6.31535C21.1634 6.36573 21.2977 6.44435 21.4129 6.54671H21.4066Z" fill="#0136B5"/>
</svg>
