<svg width="33" height="33" viewBox="0 0 33 33" fill="none" xmlns="http://www.w3.org/2000/svg">
<path d="M20.7254 2.75H12.2897C4.5815 2.75 2.75 4.58288 2.75 12.2746V20.7116C2.75 28.4171 4.56912 30.25 12.2746 30.25H20.7116C28.4171 30.25 30.25 28.4309 30.25 20.7254V12.2897C30.25 4.5815 28.4309 2.75 20.7254 2.75ZM24.9508 22.3713H22.9446C22.1856 22.3713 21.9574 21.7566 20.5961 20.3954C19.4081 19.25 18.9062 19.107 18.6051 19.107C18.1899 19.107 18.0758 19.2211 18.0758 19.7945V21.5985C18.0758 22.0866 17.9176 22.3726 16.643 22.3726C15.4062 22.2886 14.207 21.9124 13.1438 21.2749C12.0806 20.6375 11.1838 19.7569 10.527 18.7055C8.96823 16.7675 7.88429 14.4917 7.36175 12.0601C7.36175 11.759 7.47587 11.4867 8.04925 11.4867H10.0554C10.571 11.4867 10.7566 11.7164 10.9574 12.2458C11.9309 15.1112 13.5919 17.6027 14.2656 17.6027C14.5241 17.6027 14.6369 17.4886 14.6369 16.8438V13.893C14.5516 12.5469 13.8366 12.4327 13.8366 11.946C13.8458 11.8176 13.9046 11.6979 14.0006 11.6121C14.0966 11.5264 14.2223 11.4814 14.3509 11.4867H17.5024C17.9327 11.4867 18.0758 11.7013 18.0758 12.2169V16.1989C18.0758 16.6293 18.2614 16.7723 18.3906 16.7723C18.6491 16.7723 18.8485 16.6292 19.3215 16.1562C20.3374 14.9173 21.1675 13.537 21.7855 12.0588C21.8491 11.8814 21.9687 11.7297 22.1262 11.6265C22.2838 11.5233 22.4707 11.4742 22.6586 11.4867H24.6647C25.2656 11.4867 25.3935 11.7879 25.2656 12.2169C24.5362 13.851 23.6336 15.4022 22.5734 16.8438C22.3575 17.1737 22.2709 17.3456 22.5734 17.732C22.7727 18.0331 23.4754 18.6202 23.9484 19.1785C24.6355 19.8644 25.2062 20.6576 25.6383 21.527C25.8101 22.0853 25.5227 22.3713 24.9508 22.3713Z" fill="#00A2DC"/>
</svg>
