<svg width="419" height="49" viewBox="0 0 419 49" fill="none" xmlns="http://www.w3.org/2000/svg">
<path d="M65.42 31L71.9 17H72.56L79.04 31H78.3L72.08 17.46H72.38L66.16 31H65.42ZM67.66 26.9L67.92 26.32H76.48L76.74 26.9H67.66ZM84.5131 31.08C84.3665 31.08 84.2198 31.0667 84.0731 31.04C83.9398 31.0267 83.7865 31 83.6131 30.96L83.7131 30.34C83.9531 30.3933 84.1798 30.42 84.3931 30.42C85.0065 30.42 85.5065 30.18 85.8931 29.7C86.2931 29.22 86.5998 28.4467 86.8131 27.38C87.0265 26.3133 87.1665 24.9 87.2331 23.14L87.4531 17H96.3531V31H95.6931V17.38L95.9331 17.62H87.8531L88.0731 17.38L87.8531 23.16C87.8131 24.56 87.7198 25.7667 87.5731 26.78C87.4265 27.78 87.2131 28.5933 86.9331 29.22C86.6665 29.8467 86.3331 30.3133 85.9331 30.62C85.5331 30.9267 85.0598 31.08 84.5131 31.08ZM106.22 23.58H113.94V24.2H106.22V23.58ZM106.34 30.38H115.12V31H105.66V17H114.84V17.62H106.34V30.38ZM132.448 31L126.588 23.9L127.168 23.6L133.248 31H132.448ZM122.628 31V17H123.308V31H122.628ZM123.068 24.2V23.58H127.228V24.2H123.068ZM127.188 24.06L126.588 23.88L132.088 17H132.868L127.188 24.06ZM145.81 31.08C144.783 31.08 143.83 30.9067 142.95 30.56C142.07 30.2 141.303 29.7 140.65 29.06C139.996 28.42 139.49 27.6733 139.13 26.82C138.77 25.9533 138.59 25.0133 138.59 24C138.59 22.9867 138.77 22.0533 139.13 21.2C139.49 20.3333 139.996 19.58 140.65 18.94C141.303 18.3 142.07 17.8067 142.95 17.46C143.83 17.1 144.783 16.92 145.81 16.92C146.756 16.92 147.65 17.0733 148.49 17.38C149.33 17.6867 150.056 18.1533 150.67 18.78L150.25 19.22C149.623 18.62 148.936 18.1933 148.19 17.94C147.456 17.6733 146.67 17.54 145.83 17.54C144.896 17.54 144.03 17.7067 143.23 18.04C142.43 18.36 141.73 18.8133 141.13 19.4C140.543 19.9867 140.083 20.6733 139.75 21.46C139.43 22.2333 139.27 23.08 139.27 24C139.27 24.92 139.43 25.7733 139.75 26.56C140.083 27.3333 140.543 28.0133 141.13 28.6C141.73 29.1867 142.43 29.6467 143.23 29.98C144.03 30.3 144.896 30.46 145.83 30.46C146.67 30.46 147.456 30.3333 148.19 30.08C148.936 29.8133 149.623 29.3733 150.25 28.76L150.67 29.2C150.056 29.8267 149.33 30.3 148.49 30.62C147.65 30.9267 146.756 31.08 145.81 31.08ZM155.576 31L162.056 17H162.716L169.196 31H168.456L162.236 17.46H162.536L156.316 31H155.576ZM157.816 26.9L158.076 26.32H166.636L166.896 26.9H157.816ZM186.749 17H187.429V31H186.749V17ZM176.929 31H176.249V17H176.929V31ZM186.869 24.2H176.809V23.58H186.869V24.2ZM205.721 30.68V17.62H198.181L198.041 21.68C198.001 22.8267 197.934 23.9333 197.841 25C197.747 26.0533 197.601 27 197.401 27.84C197.214 28.6667 196.947 29.3333 196.601 29.84C196.267 30.3333 195.841 30.5933 195.321 30.62L194.501 30.38C195.074 30.42 195.541 30.22 195.901 29.78C196.261 29.34 196.547 28.7133 196.761 27.9C196.974 27.0867 197.127 26.1467 197.221 25.08C197.314 24 197.381 22.8533 197.421 21.64L197.561 17H206.401V30.68H205.721ZM193.981 34.26L194.001 30.38H208.581V34.26H207.921V31H194.641L194.621 34.26H193.981ZM216.027 31V17H220.887C222.047 17 223.04 17.1867 223.867 17.56C224.707 17.9333 225.347 18.4667 225.787 19.16C226.227 19.84 226.447 20.6667 226.447 21.64C226.447 22.6133 226.227 23.4467 225.787 24.14C225.347 24.8333 224.707 25.3667 223.867 25.74C223.04 26.1133 222.047 26.3 220.887 26.3H216.407L216.707 25.98V31H216.027ZM216.707 25.98L216.407 25.68H220.927C222.5 25.68 223.7 25.3267 224.527 24.62C225.367 23.9133 225.787 22.92 225.787 21.64C225.787 20.36 225.367 19.3733 224.527 18.68C223.7 17.9733 222.5 17.62 220.927 17.62H216.407L216.707 17.3V25.98ZM249.048 31.08C248.021 31.08 247.068 30.9067 246.188 30.56C245.308 30.2 244.541 29.7 243.888 29.06C243.234 28.42 242.728 27.6733 242.368 26.82C242.008 25.9533 241.828 25.0133 241.828 24C241.828 22.9867 242.008 22.0533 242.368 21.2C242.728 20.3333 243.234 19.58 243.888 18.94C244.541 18.3 245.308 17.8067 246.188 17.46C247.068 17.1 248.021 16.92 249.048 16.92C249.994 16.92 250.888 17.0733 251.728 17.38C252.568 17.6867 253.294 18.1533 253.908 18.78L253.488 19.22C252.861 18.62 252.174 18.1933 251.428 17.94C250.694 17.6733 249.908 17.54 249.068 17.54C248.134 17.54 247.268 17.7067 246.468 18.04C245.668 18.36 244.968 18.8133 244.368 19.4C243.781 19.9867 243.321 20.6733 242.988 21.46C242.668 22.2333 242.508 23.08 242.508 24C242.508 24.92 242.668 25.7733 242.988 26.56C243.321 27.3333 243.781 28.0133 244.368 28.6C244.968 29.1867 245.668 29.6467 246.468 29.98C247.268 30.3 248.134 30.46 249.068 30.46C249.908 30.46 250.694 30.3333 251.428 30.08C252.174 29.8133 252.861 29.3733 253.488 28.76L253.908 29.2C253.294 29.8267 252.568 30.3 251.728 30.62C250.888 30.9267 249.994 31.08 249.048 31.08ZM261.966 23.58H269.686V24.2H261.966V23.58ZM262.086 30.38H270.866V31H261.406V17H270.586V17.62H262.086V30.38ZM278.374 31V17H283.234C284.394 17 285.388 17.1867 286.214 17.56C287.054 17.9333 287.694 18.4667 288.134 19.16C288.574 19.84 288.794 20.6667 288.794 21.64C288.794 22.6133 288.574 23.4467 288.134 24.14C287.694 24.8333 287.054 25.3667 286.214 25.74C285.388 26.1133 284.394 26.3 283.234 26.3H278.754L279.054 25.98V31H278.374ZM279.054 25.98L278.754 25.68H283.274C284.848 25.68 286.048 25.3267 286.874 24.62C287.714 23.9133 288.134 22.92 288.134 21.64C288.134 20.36 287.714 19.3733 286.874 18.68C286.048 17.9733 284.848 17.62 283.274 17.62H278.754L279.054 17.3V25.98ZM296.802 23.58H304.522V24.2H296.802V23.58ZM296.922 30.38H305.702V31H296.242V17H305.422V17.62H296.922V30.38ZM313.21 31V17H322.99V17.6H313.89V23.02H318.75C320.39 23.02 321.63 23.3533 322.47 24.02C323.324 24.6867 323.75 25.66 323.75 26.94C323.75 28.2733 323.304 29.2867 322.41 29.98C321.53 30.66 320.23 31 318.51 31H313.21ZM313.89 30.42H318.57C320.064 30.42 321.19 30.1333 321.95 29.56C322.71 28.9733 323.09 28.1067 323.09 26.96C323.09 24.72 321.584 23.6 318.57 23.6H313.89V30.42ZM331.605 31V17H336.465C337.625 17 338.618 17.1867 339.445 17.56C340.285 17.9333 340.925 18.4667 341.365 19.16C341.805 19.84 342.025 20.6667 342.025 21.64C342.025 22.6133 341.805 23.4467 341.365 24.14C340.925 24.8333 340.285 25.3667 339.445 25.74C338.618 26.1133 337.625 26.3 336.465 26.3H331.985L332.285 25.98V31H331.605ZM332.285 25.98L331.985 25.68H336.505C338.078 25.68 339.278 25.3267 340.105 24.62C340.945 23.9133 341.365 22.92 341.365 21.64C341.365 20.36 340.945 19.3733 340.105 18.68C339.278 17.9733 338.078 17.62 336.505 17.62H331.985L332.285 17.3V25.98ZM357.86 31V26.26L358.1 26.48H353.18C352.113 26.48 351.2 26.3 350.44 25.94C349.68 25.5667 349.1 25.0333 348.7 24.34C348.3 23.6333 348.1 22.7867 348.1 21.8C348.1 20.76 348.32 19.8867 348.76 19.18C349.2 18.46 349.813 17.92 350.6 17.56C351.386 17.1867 352.313 17 353.38 17H358.52V31H357.86ZM348.08 31L351.5 26.12H352.24L348.82 31H348.08ZM357.86 26.12V17.38L358.1 17.62H353.44C351.96 17.62 350.813 17.98 350 18.7C349.186 19.4067 348.78 20.44 348.78 21.8C348.78 23.0933 349.153 24.1 349.9 24.82C350.66 25.5267 351.773 25.88 353.24 25.88H358.1L357.86 26.12ZM377.648 31L371.788 23.9L372.368 23.6L378.448 31H377.648ZM367.827 31V17H368.508V31H367.827ZM368.268 24.2V23.58H372.428V24.2H368.268ZM372.388 24.06L371.788 23.88L377.288 17H378.068L372.388 24.06ZM391.009 31.08C389.982 31.08 389.029 30.9067 388.149 30.56C387.269 30.2 386.502 29.7 385.849 29.06C385.195 28.42 384.689 27.6733 384.329 26.82C383.969 25.9533 383.789 25.0133 383.789 24C383.789 22.9867 383.969 22.0533 384.329 21.2C384.689 20.3333 385.195 19.58 385.849 18.94C386.502 18.3 387.269 17.8067 388.149 17.46C389.029 17.1 389.982 16.92 391.009 16.92C392.049 16.92 393.009 17.1 393.889 17.46C394.769 17.8067 395.529 18.3 396.169 18.94C396.822 19.58 397.329 20.3333 397.689 21.2C398.062 22.0533 398.249 22.9867 398.249 24C398.249 25.0133 398.062 25.9533 397.689 26.82C397.329 27.6733 396.822 28.42 396.169 29.06C395.529 29.7 394.769 30.2 393.889 30.56C393.009 30.9067 392.049 31.08 391.009 31.08ZM391.009 30.46C391.942 30.46 392.809 30.3 393.609 29.98C394.409 29.66 395.102 29.2067 395.689 28.62C396.289 28.0333 396.749 27.3533 397.069 26.58C397.402 25.7933 397.569 24.9333 397.569 24C397.569 23.0667 397.402 22.2133 397.069 21.44C396.749 20.6533 396.289 19.9667 395.689 19.38C395.102 18.7933 394.409 18.34 393.609 18.02C392.809 17.7 391.942 17.54 391.009 17.54C390.089 17.54 389.229 17.7 388.429 18.02C387.629 18.34 386.929 18.7933 386.329 19.38C385.742 19.9667 385.282 20.6533 384.949 21.44C384.629 22.2133 384.469 23.0667 384.469 24C384.469 24.9333 384.629 25.7933 384.949 26.58C385.282 27.3533 385.742 28.0333 386.329 28.62C386.929 29.2067 387.629 29.66 388.429 29.98C389.229 30.3 390.089 30.46 391.009 30.46ZM406.218 31V17H411.718C413.118 17 414.231 17.3 415.058 17.9C415.898 18.4867 416.318 19.3667 416.318 20.54C416.318 21.7133 415.918 22.5867 415.118 23.16C414.318 23.7333 413.278 24.02 411.998 24.02L412.338 23.7C413.885 23.7 415.051 24.0067 415.838 24.62C416.638 25.2333 417.038 26.1333 417.038 27.32C417.038 28.4933 416.631 29.4 415.818 30.04C415.005 30.68 413.765 31 412.098 31H406.218ZM406.898 30.42H412.158C413.531 30.42 414.571 30.1667 415.278 29.66C415.998 29.1533 416.358 28.36 416.358 27.28C416.358 26.2 415.998 25.4133 415.278 24.92C414.571 24.4267 413.531 24.18 412.158 24.18H406.898V30.42ZM406.898 23.6H411.738C412.978 23.6 413.938 23.3467 414.618 22.84C415.298 22.3333 415.638 21.5867 415.638 20.6C415.638 19.6133 415.298 18.8667 414.618 18.36C413.938 17.84 412.978 17.58 411.738 17.58H406.898V23.6Z" fill="black"/>
<path d="M14.642 30H12.392L16.4886 18.3636H19.0909L23.1932 30H20.9432L17.8352 20.75H17.7443L14.642 30ZM14.7159 25.4375H20.8523V27.1307H14.7159V25.4375ZM36.0592 22.2898H33.9342C33.8736 21.9413 33.7619 21.6326 33.599 21.3636C33.4361 21.0909 33.2334 20.8598 32.991 20.6705C32.7486 20.4811 32.4721 20.339 32.1615 20.2443C31.8547 20.1458 31.5232 20.0966 31.1672 20.0966C30.5346 20.0966 29.974 20.2557 29.4853 20.5739C28.9967 20.8883 28.6141 21.3504 28.3376 21.9602C28.0611 22.5663 27.9228 23.3068 27.9228 24.1818C27.9228 25.072 28.0611 25.822 28.3376 26.4318C28.6179 27.0379 29.0005 27.4962 29.4853 27.8068C29.974 28.1136 30.5327 28.267 31.1615 28.267C31.51 28.267 31.8357 28.2216 32.1388 28.1307C32.4456 28.036 32.7202 27.8977 32.9626 27.7159C33.2088 27.5341 33.4153 27.3106 33.5819 27.0455C33.7524 26.7803 33.8698 26.4773 33.9342 26.1364L36.0592 26.1477C35.9797 26.7008 35.8073 27.2197 35.5422 27.7045C35.2808 28.1894 34.938 28.6174 34.5138 28.9886C34.0895 29.3561 33.5933 29.6439 33.0251 29.8523C32.4569 30.0568 31.8263 30.1591 31.1331 30.1591C30.1103 30.1591 29.1975 29.9223 28.3944 29.4489C27.5914 28.9754 26.9588 28.2917 26.4967 27.3977C26.0346 26.5038 25.8035 25.4318 25.8035 24.1818C25.8035 22.928 26.0365 21.8561 26.5024 20.9659C26.9683 20.072 27.6028 19.3883 28.4058 18.9148C29.2088 18.4413 30.1179 18.2045 31.1331 18.2045C31.7808 18.2045 32.3831 18.2955 32.9399 18.4773C33.4967 18.6591 33.9929 18.9261 34.4285 19.2784C34.8641 19.6269 35.2221 20.0549 35.5024 20.5625C35.7865 21.0663 35.9721 21.642 36.0592 22.2898Z" fill="black"/>
<rect x="0.5" y="0.5" width="48" height="48" stroke="black" stroke-opacity="0.62"/>
</svg>
