<svg width="22" height="20" viewBox="0 0 22 20" fill="none" xmlns="http://www.w3.org/2000/svg">
<path d="M0 0.96875C0 0.794702 0.0757252 0.627782 0.210517 0.504711C0.345309 0.38164 0.528126 0.3125 0.71875 0.3125H2.875C3.03533 0.31254 3.19103 0.361523 3.31736 0.451657C3.44369 0.541792 3.53339 0.667904 3.57219 0.809937L4.15438 2.9375H20.8438C20.9493 2.93759 21.0535 2.9589 21.149 2.99991C21.2445 3.04092 21.3289 3.10064 21.3963 3.1748C21.4637 3.24897 21.5123 3.33578 21.5388 3.42905C21.5653 3.52233 21.569 3.61979 21.5496 3.7145L19.3933 14.2145C19.3625 14.3649 19.2751 14.5007 19.1462 14.5985C19.0173 14.6963 18.8551 14.7499 18.6875 14.75H5.75C5.58243 14.7499 5.42019 14.6963 5.29131 14.5985C5.16243 14.5007 5.07502 14.3649 5.04419 14.2145L2.88937 3.73419L2.31437 1.625H0.71875C0.528126 1.625 0.345309 1.55586 0.210517 1.43279C0.0757252 1.30972 0 1.1428 0 0.96875ZM7.1875 14.75C6.425 14.75 5.69374 15.0266 5.15457 15.5188C4.6154 16.0111 4.3125 16.6788 4.3125 17.375C4.3125 18.0712 4.6154 18.7389 5.15457 19.2312C5.69374 19.7234 6.425 20 7.1875 20C7.95 20 8.68126 19.7234 9.22043 19.2312C9.7596 18.7389 10.0625 18.0712 10.0625 17.375C10.0625 16.6788 9.7596 16.0111 9.22043 15.5188C8.68126 15.0266 7.95 14.75 7.1875 14.75ZM17.25 14.75C16.4875 14.75 15.7562 15.0266 15.2171 15.5188C14.6779 16.0111 14.375 16.6788 14.375 17.375C14.375 18.0712 14.6779 18.7389 15.2171 19.2312C15.7562 19.7234 16.4875 20 17.25 20C18.0125 20 18.7438 19.7234 19.2829 19.2312C19.8221 18.7389 20.125 18.0712 20.125 17.375C20.125 16.6788 19.8221 16.0111 19.2829 15.5188C18.7438 15.0266 18.0125 14.75 17.25 14.75ZM7.1875 16.0625C7.56875 16.0625 7.93438 16.2008 8.20397 16.4469C8.47355 16.6931 8.625 17.0269 8.625 17.375C8.625 17.7231 8.47355 18.0569 8.20397 18.3031C7.93438 18.5492 7.56875 18.6875 7.1875 18.6875C6.80625 18.6875 6.44062 18.5492 6.17103 18.3031C5.90145 18.0569 5.75 17.7231 5.75 17.375C5.75 17.0269 5.90145 16.6931 6.17103 16.4469C6.44062 16.2008 6.80625 16.0625 7.1875 16.0625ZM17.25 16.0625C17.6312 16.0625 17.9969 16.2008 18.2665 16.4469C18.536 16.6931 18.6875 17.0269 18.6875 17.375C18.6875 17.7231 18.536 18.0569 18.2665 18.3031C17.9969 18.5492 17.6312 18.6875 17.25 18.6875C16.8688 18.6875 16.5031 18.5492 16.2335 18.3031C15.964 18.0569 15.8125 17.7231 15.8125 17.375C15.8125 17.0269 15.964 16.6931 16.2335 16.4469C16.5031 16.2008 16.8688 16.0625 17.25 16.0625Z" fill="black"/>
</svg>
