<svg width="184" height="13" viewBox="0 0 184 13" fill="none" xmlns="http://www.w3.org/2000/svg">
<path d="M0.94325 12V0.799999H4.71925V9.072H9.77525V12H0.94325ZM14.8183 12V0.799999H18.5943V12H14.8183ZM26.844 12V3.728H23.564V0.799999H33.9V3.728H30.62V12H26.844ZM41.469 12V3.728H38.189V0.799999H48.525V3.728H45.245V12H41.469ZM53.5058 12V0.799999H57.2818V9.072H62.3378V12H53.5058ZM70.8368 4.96H75.8288V7.68H70.8368V4.96ZM71.0928 9.152H76.6928V12H67.3808V0.799999H76.4848V3.648H71.0928V9.152ZM96.8153 12.256C95.9086 12.256 95.0659 12.112 94.2873 11.824C93.5193 11.536 92.8526 11.1307 92.2873 10.608C91.7219 10.0747 91.2793 9.45067 90.9593 8.736C90.6499 8.02133 90.4953 7.24267 90.4953 6.4C90.4953 5.54667 90.6499 4.768 90.9593 4.064C91.2793 3.34933 91.7219 2.73067 92.2873 2.208C92.8526 1.67467 93.5193 1.264 94.2873 0.976C95.0659 0.688 95.9086 0.544 96.8153 0.544C97.7326 0.544 98.5753 0.688 99.3433 0.976C100.111 1.264 100.778 1.67467 101.343 2.208C101.909 2.73067 102.346 3.34933 102.655 4.064C102.975 4.768 103.135 5.54667 103.135 6.4C103.135 7.24267 102.975 8.02133 102.655 8.736C102.346 9.45067 101.909 10.0747 101.343 10.608C100.778 11.1307 100.111 11.536 99.3433 11.824C98.5753 12.112 97.7326 12.256 96.8153 12.256ZM96.8153 9.2C97.1673 9.2 97.4926 9.136 97.7913 9.008C98.1006 8.88 98.3673 8.69867 98.5913 8.464C98.8259 8.21867 99.0073 7.92533 99.1353 7.584C99.2633 7.232 99.3273 6.83733 99.3273 6.4C99.3273 5.96267 99.2633 5.57333 99.1353 5.232C99.0073 4.88 98.8259 4.58667 98.5913 4.352C98.3673 4.10667 98.1006 3.92 97.7913 3.792C97.4926 3.664 97.1673 3.6 96.8153 3.6C96.4633 3.6 96.1326 3.664 95.8233 3.792C95.5246 3.92 95.2579 4.10667 95.0233 4.352C94.7993 4.58667 94.6233 4.88 94.4953 5.232C94.3673 5.57333 94.3033 5.96267 94.3033 6.4C94.3033 6.83733 94.3673 7.232 94.4953 7.584C94.6233 7.92533 94.7993 8.21867 95.0233 8.464C95.2579 8.69867 95.5246 8.88 95.8233 9.008C96.1326 9.136 96.4633 9.2 96.8153 9.2ZM107.059 12L112.052 5.024L112.036 7.664L107.204 0.799999H111.444L114.26 4.96L112.452 4.976L115.204 0.799999H119.268L114.436 7.52V4.896L119.508 12H115.188L112.372 7.648L114.116 7.632L111.364 12H107.059ZM127.479 5.568H132.407V8.416H127.479V5.568ZM127.735 12H123.959V0.799999H133.063V3.648H127.735V12ZM144.05 12.256C143.143 12.256 142.3 12.112 141.522 11.824C140.754 11.536 140.087 11.1307 139.522 10.608C138.956 10.0747 138.514 9.45067 138.194 8.736C137.884 8.02133 137.73 7.24267 137.73 6.4C137.73 5.54667 137.884 4.768 138.194 4.064C138.514 3.34933 138.956 2.73067 139.522 2.208C140.087 1.67467 140.754 1.264 141.522 0.976C142.3 0.688 143.143 0.544 144.05 0.544C144.967 0.544 145.81 0.688 146.578 0.976C147.346 1.264 148.012 1.67467 148.578 2.208C149.143 2.73067 149.58 3.34933 149.89 4.064C150.21 4.768 150.37 5.54667 150.37 6.4C150.37 7.24267 150.21 8.02133 149.89 8.736C149.58 9.45067 149.143 10.0747 148.578 10.608C148.012 11.1307 147.346 11.536 146.578 11.824C145.81 12.112 144.967 12.256 144.05 12.256ZM144.05 9.2C144.402 9.2 144.727 9.136 145.026 9.008C145.335 8.88 145.602 8.69867 145.826 8.464C146.06 8.21867 146.242 7.92533 146.37 7.584C146.498 7.232 146.562 6.83733 146.562 6.4C146.562 5.96267 146.498 5.57333 146.37 5.232C146.242 4.88 146.06 4.58667 145.826 4.352C145.602 4.10667 145.335 3.92 145.026 3.792C144.727 3.664 144.402 3.6 144.05 3.6C143.698 3.6 143.367 3.664 143.058 3.792C142.759 3.92 142.492 4.10667 142.258 4.352C142.034 4.58667 141.858 4.88 141.73 5.232C141.602 5.57333 141.538 5.96267 141.538 6.4C141.538 6.83733 141.602 7.232 141.73 7.584C141.858 7.92533 142.034 8.21867 142.258 8.464C142.492 8.69867 142.759 8.88 143.058 9.008C143.367 9.136 143.698 9.2 144.05 9.2ZM155.74 12V0.799999H161.132C162.177 0.799999 163.079 0.970666 163.836 1.312C164.604 1.65333 165.196 2.144 165.612 2.784C166.028 3.41333 166.236 4.16 166.236 5.024C166.236 5.888 166.028 6.63467 165.612 7.264C165.196 7.88267 164.604 8.35733 163.836 8.688C163.079 9.01867 162.177 9.184 161.132 9.184H157.836L159.516 7.632V12H155.74ZM162.444 12L159.692 7.92H163.692L166.476 12H162.444ZM159.516 8.048L157.836 6.336H160.892C161.415 6.336 161.799 6.21867 162.044 5.984C162.3 5.74933 162.428 5.42933 162.428 5.024C162.428 4.61867 162.3 4.29867 162.044 4.064C161.799 3.82933 161.415 3.712 160.892 3.712H157.836L159.516 2V8.048ZM171.662 12V0.799999H177.182C178.43 0.799999 179.529 1.02933 180.478 1.488C181.427 1.936 182.169 2.576 182.702 3.408C183.235 4.24 183.502 5.232 183.502 6.384C183.502 7.54667 183.235 8.54933 182.702 9.392C182.169 10.224 181.427 10.8693 180.478 11.328C179.529 11.776 178.43 12 177.182 12H171.662ZM175.438 9.056H177.022C177.555 9.056 178.019 8.95467 178.414 8.752C178.819 8.54933 179.134 8.25067 179.358 7.856C179.582 7.45067 179.694 6.96 179.694 6.384C179.694 5.81867 179.582 5.33867 179.358 4.944C179.134 4.54933 178.819 4.25067 178.414 4.048C178.019 3.84533 177.555 3.744 177.022 3.744H175.438V9.056Z" fill="black"/>
</svg>
