<svg width="25" height="25" viewBox="0 0 25 25" fill="none" xmlns="http://www.w3.org/2000/svg">
<g clip-path="url(#clip0_5301_7097)">
<path d="M24.4572 11.3794C24.9493 10.8999 25.123 10.196 24.9108 9.54173C24.698 8.88745 24.1439 8.42039 23.4631 8.32127L17.4098 7.44172C17.152 7.40417 16.9292 7.24248 16.8141 7.0087L14.1078 1.52361C13.804 0.907374 13.1872 0.524414 12.4999 0.524414C11.8131 0.524414 11.1963 0.907374 10.8925 1.52361L8.18572 7.0087C8.07058 7.24248 7.84731 7.40417 7.5895 7.44172L1.53624 8.32177C0.855923 8.42039 0.301758 8.88745 0.089003 9.54173C-0.123252 10.196 0.0504568 10.8999 0.542547 11.3794L4.9223 15.6486C5.10903 15.8308 5.19463 16.0931 5.15058 16.3494L4.11684 22.3781C4.0007 23.0555 4.27352 23.7268 4.82969 24.1312C5.38536 24.5362 6.10873 24.5888 6.71796 24.2679L12.1315 21.4215C12.3622 21.3003 12.6376 21.3003 12.8683 21.4215L18.2823 24.2679C18.5467 24.4071 18.833 24.4757 19.1178 24.4757C19.4878 24.4757 19.8562 24.36 20.1706 24.1312C20.7268 23.7268 20.9996 23.0555 20.8835 22.3781L19.8492 16.3499C19.8052 16.0931 19.8908 15.8313 20.0775 15.6491L24.4572 11.3794ZM18.863 16.5191L19.8968 22.5473C19.9488 22.8507 19.8312 23.1406 19.5819 23.3218C19.3321 23.5025 19.0212 23.5245 18.7484 23.3823L13.3344 20.5354C13.0736 20.3988 12.7862 20.3297 12.4999 20.3297C12.2136 20.3297 11.9267 20.3988 11.6654 20.5359L6.2524 23.3823C5.97857 23.5245 5.6677 23.5025 5.4184 23.3218C5.1691 23.1406 5.05196 22.8512 5.10352 22.5473L6.13726 16.5191C6.23688 15.9374 6.04415 15.3437 5.62164 14.9322L1.24139 10.6626C1.02062 10.4473 0.945531 10.144 1.04115 9.85111C1.13626 9.55775 1.37505 9.35651 1.67991 9.31196L7.73268 8.4324C8.31688 8.3478 8.82198 7.98136 9.0828 7.45173L11.7895 1.96664C11.9257 1.69031 12.1915 1.52562 12.4994 1.52562C12.8078 1.52562 13.0731 1.69031 13.2097 1.96664L15.9165 7.45173C16.1773 7.98136 16.6819 8.3478 17.2661 8.4324L23.3194 9.31196C23.6242 9.35651 23.863 9.55775 23.9581 9.85111C24.0533 10.144 23.9787 10.4473 23.7579 10.6626L19.3782 14.9317C18.9556 15.3437 18.7629 15.9369 18.863 16.5191Z" fill="black"/>
</g>
<defs>
<clipPath id="clip0_5301_7097">
<rect width="25" height="25" fill="white"/>
</clipPath>
</defs>
</svg>
