<svg width="50" height="50" viewBox="0 0 50 50" fill="none" xmlns="http://www.w3.org/2000/svg">
<circle cx="25" cy="25" r="25" fill="#EBE9FF"/>
<path d="M25.5 36.6092C25.1441 36.6092 24.8009 36.4802 24.5335 36.246C23.5236 35.3629 22.5499 34.533 21.6908 33.801L21.6864 33.7972C19.1678 31.6508 16.9928 29.7973 15.4795 27.9714C13.7879 25.9301 13 23.9947 13 21.8804C13 19.8262 13.7044 17.9311 14.9833 16.5439C16.2774 15.1402 18.0531 14.3672 19.9839 14.3672C21.427 14.3672 22.7486 14.8234 23.9119 15.7231C24.499 16.1773 25.0312 16.7331 25.5 17.3814C25.969 16.7331 26.501 16.1773 27.0882 15.7231C28.2515 14.8234 29.5731 14.3672 31.0162 14.3672C32.9468 14.3672 34.7228 15.1402 36.0169 16.5439C37.2958 17.9311 38 19.8262 38 21.8804C38 23.9947 37.2122 25.9301 35.5206 27.9712C34.0073 29.7973 31.8326 31.6506 29.3143 33.7968C28.4537 34.53 27.4785 35.3612 26.4662 36.2464C26.199 36.4802 25.8557 36.6092 25.5 36.6092ZM19.9839 15.8316C18.467 15.8316 17.0735 16.437 16.0598 17.5364C15.0309 18.6524 14.4643 20.1951 14.4643 21.8804C14.4643 23.6586 15.1252 25.249 16.607 27.0369C18.0392 28.7652 20.1695 30.5806 22.6361 32.6827L22.6407 32.6865C23.503 33.4214 24.4805 34.2545 25.4979 35.1441C26.5214 34.2528 27.5004 33.4184 28.3644 32.6823C30.8308 30.5802 32.9609 28.7652 34.3932 27.0369C35.8748 25.249 36.5357 23.6586 36.5357 21.8804C36.5357 20.1951 35.969 18.6524 34.9402 17.5364C33.9266 16.437 32.5329 15.8316 31.0162 15.8316C29.905 15.8316 28.8848 16.1849 27.9839 16.8815C27.1811 17.5025 26.6219 18.2876 26.294 18.8369C26.1254 19.1193 25.8286 19.288 25.5 19.288C25.1713 19.288 24.8746 19.1193 24.7059 18.8369C24.3783 18.2876 23.819 17.5025 23.016 16.8815C22.1152 16.1849 21.095 15.8316 19.9839 15.8316Z" fill="#4F28EA"/>
</svg>
