<svg width="33" height="51" viewBox="0 0 33 51" fill="none" xmlns="http://www.w3.org/2000/svg">
<path d="M23.3411 37.0064C23.3411 36.7295 23.433 36.4834 23.5863 36.3296C23.7396 36.145 23.9849 36.0835 24.2914 36.0835H27.725C27.9702 36.0835 28.1848 36.1757 28.3994 36.3296C28.614 36.4834 28.706 36.7295 28.706 37.0064V46.7585C28.706 46.943 28.6753 47.0969 28.5834 47.2507C28.4914 47.4045 28.3381 47.5583 28.1235 47.6814H28.0929C28.0929 47.6814 28.0929 47.6814 28.0622 47.6814C27.3878 48.1428 26.6826 48.5735 25.9162 48.9427C25.1498 49.3119 24.3527 49.6195 23.525 49.8656C22.6973 50.1117 21.8389 50.2963 20.9805 50.4501C20.0914 50.5732 19.233 50.6655 18.344 50.6655C16.8725 50.6655 15.4316 50.4809 14.052 50.081C12.6725 49.7118 11.3849 49.158 10.1893 48.4505C8.99366 47.7429 7.92067 46.9123 6.93966 45.9279C5.95864 44.9434 5.13091 43.8667 4.4258 42.6669C3.72069 41.4671 3.16887 40.175 2.80098 38.7907C2.4331 37.4063 2.21851 35.9604 2.21851 34.4837C2.21851 33.0071 2.40244 31.5612 2.80098 30.1768C3.19952 28.7924 3.72069 27.5004 4.4258 26.3006C5.13091 25.1008 5.95864 23.9933 6.93966 23.0089C7.92067 22.0244 8.99367 21.163 10.2199 20.4555C11.4156 19.7479 12.7031 19.1942 14.0827 18.825C15.4623 18.4251 16.9031 18.2405 18.3747 18.2405C19.3863 18.2405 20.3673 18.3328 21.379 18.5174C22.3907 18.7019 23.3411 18.948 24.2608 19.3172C24.598 19.471 25.0272 19.6248 25.5177 19.8402C26.0082 20.0555 26.4681 20.2709 26.8973 20.5478C27.3264 20.7939 27.6943 21.0707 28.0009 21.3476C28.3075 21.6245 28.4608 21.8706 28.4608 22.1475C28.4608 22.2705 28.3994 22.4551 28.2768 22.7012C28.1542 22.9473 28.0009 23.2242 27.7863 23.5318C27.6024 23.8395 27.3878 24.1779 27.1425 24.4855C26.8972 24.8239 26.6827 25.1316 26.4374 25.3777C26.2228 25.6545 26.0082 25.8699 25.8243 26.0545C25.6403 26.2391 25.487 26.3313 25.3951 26.3313C25.3031 26.3313 25.2111 26.3006 25.0885 26.2698C24.9659 26.2391 24.8432 26.1775 24.7206 26.0545C23.8316 25.4392 22.8199 24.947 21.7162 24.5778C20.6126 24.2086 19.4783 24.0241 18.3133 24.0241C16.8112 24.0241 15.4316 24.3009 14.1747 24.8854C12.9177 25.4392 11.8447 26.2083 10.925 27.1927C10.036 28.1464 9.33089 29.2847 8.80972 30.546C8.28856 31.8073 8.0433 33.1609 8.0433 34.5453C8.0433 35.9912 8.31922 37.3448 8.87104 38.6061C9.42286 39.8674 10.1586 40.9749 11.0783 41.9286C11.998 42.8822 13.071 43.6206 14.328 44.1435C15.5542 44.6973 16.8725 44.9742 18.2827 44.9742C18.8038 44.9742 19.325 44.9434 19.8155 44.8511C20.306 44.7588 20.7965 44.6665 21.2564 44.5435C21.6856 44.4204 22.0841 44.2974 22.452 44.1435C22.7892 43.9897 23.0958 43.8359 23.3104 43.7129V37.0064H23.3411Z" fill="#F7981D"/>
<path d="M16.6273 10.3957L16.5967 9.25746C16.5967 8.98058 16.4127 2.18179 20.7967 0.828187C21.8697 0.489785 23.0039 0.61284 23.985 1.13582C24.966 1.65881 25.7017 2.52019 26.039 3.59693C26.7134 5.81192 25.4872 8.14996 23.2799 8.82677C21.5631 9.34975 17.9149 10.1188 17.7616 10.1804L16.6273 10.3957ZM22.0536 2.55096C21.839 2.55096 21.5937 2.58172 21.3791 2.64325C20.1529 3.01241 19.2945 4.2122 18.8346 6.15032C18.6813 6.85788 18.5894 7.50392 18.5281 8.05767C19.7543 7.7808 21.655 7.35011 22.6974 7.01171C23.2799 6.82712 23.7397 6.42719 24.0463 5.90421C24.3222 5.35046 24.3835 4.73518 24.1996 4.15067C24.0156 3.56616 23.6171 3.1047 23.0959 2.79707C22.7587 2.64325 22.4215 2.55096 22.0536 2.55096Z" fill="#F7981D"/>
<path d="M16.6273 10.3958L15.5237 10.1496C15.3704 10.1189 11.7223 9.34979 10.0055 8.79604C7.79821 8.11924 6.57194 5.75042 7.24639 3.56619C7.92084 1.3512 10.2814 0.120648 12.458 0.797451C16.8726 2.15106 16.6886 8.94986 16.658 9.22673L16.6273 10.3958ZM11.2318 2.55099C10.8639 2.55099 10.496 2.64328 10.1588 2.82786C9.60695 3.10474 9.23907 3.59696 9.05513 4.18147C8.87119 4.76598 8.9325 5.38126 9.20841 5.93501C9.48432 6.48876 9.97484 6.85792 10.5573 7.04251C11.5996 7.38091 13.5003 7.8116 14.7266 8.08847C14.696 7.53473 14.604 6.85792 14.42 6.15035C13.9602 4.21223 13.1018 3.07397 11.9062 2.67404C11.6916 2.58175 11.4464 2.55099 11.2318 2.55099Z" fill="#F7981D"/>
<path d="M31.833 13.8718H1.39084C0.930986 13.8718 0.56311 13.5027 0.56311 13.0412V10.7955C0.56311 10.334 0.930986 9.96484 1.39084 9.96484H31.833C32.2929 9.96484 32.6608 10.334 32.6608 10.7955V13.0412C32.6301 13.5027 32.2622 13.8718 31.833 13.8718Z" fill="#F7981D"/>
</svg>
