<svg width="139" height="51" viewBox="0 0 139 51" fill="none" xmlns="http://www.w3.org/2000/svg">
<path d="M23.3411 37.0061C23.3411 36.7292 23.433 36.4831 23.5863 36.3293C23.7396 36.1447 23.9849 36.0832 24.2914 36.0832H27.725C27.9702 36.0832 28.1848 36.1755 28.3994 36.3293C28.614 36.4831 28.706 36.7292 28.706 37.0061V46.7582C28.706 46.9428 28.6753 47.0966 28.5834 47.2504C28.4914 47.4043 28.3381 47.5581 28.1235 47.6811H28.0929C28.0929 47.6811 28.0929 47.6811 28.0622 47.6811C27.3878 48.1426 26.6826 48.5733 25.9162 48.9425C25.1498 49.3116 24.3527 49.6193 23.525 49.8654C22.6973 50.1115 21.8389 50.2961 20.9805 50.4499C20.0914 50.5729 19.233 50.6652 18.344 50.6652C16.8725 50.6652 15.4316 50.4806 14.052 50.0807C12.6725 49.7115 11.3849 49.1578 10.1893 48.4502C8.99366 47.7427 7.92067 46.912 6.93966 45.9276C5.95864 44.9432 5.13091 43.8664 4.4258 42.6666C3.72069 41.4669 3.16887 40.1748 2.80098 38.7904C2.4331 37.406 2.21851 35.9601 2.21851 34.4835C2.21851 33.0068 2.40244 31.5609 2.80098 30.1766C3.19952 28.7922 3.72069 27.5001 4.4258 26.3003C5.13091 25.1005 5.95864 23.9931 6.93966 23.0086C7.92067 22.0242 8.99367 21.1628 10.2199 20.4552C11.4156 19.7477 12.7031 19.1939 14.0827 18.8247C15.4623 18.4248 16.9031 18.2402 18.3747 18.2402C19.3863 18.2402 20.3673 18.3325 21.379 18.5171C22.3907 18.7017 23.3411 18.9478 24.2608 19.317C24.598 19.4708 25.0272 19.6246 25.5177 19.8399C26.0082 20.0553 26.4681 20.2706 26.8973 20.5475C27.3264 20.7936 27.6943 21.0705 28.0009 21.3474C28.3075 21.6242 28.4608 21.8704 28.4608 22.1472C28.4608 22.2703 28.3994 22.4549 28.2768 22.701C28.1542 22.9471 28.0009 23.224 27.7863 23.5316C27.6024 23.8392 27.3878 24.1776 27.1425 24.4853C26.8972 24.8237 26.6827 25.1313 26.4374 25.3774C26.2228 25.6543 26.0082 25.8696 25.8243 26.0542C25.6403 26.2388 25.487 26.3311 25.3951 26.3311C25.3031 26.3311 25.2111 26.3003 25.0885 26.2696C24.9659 26.2388 24.8432 26.1773 24.7206 26.0542C23.8316 25.4389 22.8199 24.9467 21.7162 24.5776C20.6126 24.2084 19.4783 24.0238 18.3133 24.0238C16.8112 24.0238 15.4316 24.3007 14.1747 24.8852C12.9177 25.439 11.8447 26.208 10.925 27.1925C10.036 28.1462 9.33089 29.2844 8.80972 30.5457C8.28856 31.807 8.0433 33.1607 8.0433 34.545C8.0433 35.9909 8.31922 37.3445 8.87104 38.6058C9.42286 39.8671 10.1586 40.9746 11.0783 41.9283C11.998 42.882 13.071 43.6203 14.328 44.1433C15.5542 44.6971 16.8725 44.9739 18.2827 44.9739C18.8038 44.9739 19.325 44.9432 19.8155 44.8509C20.306 44.7586 20.7965 44.6663 21.2564 44.5432C21.6856 44.4202 22.0841 44.2971 22.452 44.1433C22.7892 43.9895 23.0958 43.8357 23.3104 43.7126V37.0061H23.3411Z" fill="#F7981D"/>
<path d="M34.7454 19.502C34.7454 18.6407 35.1746 18.21 36.0023 18.21H39.5585C39.957 18.21 40.2636 18.3023 40.5088 18.5176C40.7541 18.7329 40.8767 19.0406 40.8767 19.4713V22.3015C40.8767 22.6399 40.7541 22.9476 40.5395 23.2245C40.3249 23.5013 39.9877 23.6552 39.5891 23.6552H36.0329C35.1746 23.6552 34.776 23.1937 34.776 22.3015V19.502H34.7454ZM34.7454 29.8387C34.7454 29.4695 34.8373 29.1619 35.0519 28.9158C35.2665 28.6696 35.5731 28.5466 35.9716 28.5466H39.4972C39.6505 28.5466 39.8037 28.5774 39.9877 28.6389C40.141 28.7004 40.2942 28.7927 40.4169 28.9158C40.5395 29.0388 40.6621 29.1619 40.7234 29.3157C40.8154 29.4695 40.8461 29.6541 40.8461 29.8387V48.9122C40.8461 49.7736 40.4169 50.1735 39.5278 50.1735H36.0023C35.1439 50.1735 34.7454 49.7428 34.7454 48.9122V29.8387Z" fill="#3F0182" fill-opacity="0.45"/>
<path d="M48.6022 23.3166C48.6022 22.0552 48.7862 20.8555 49.1847 19.6864C49.5526 18.5174 50.1351 17.5022 50.8708 16.6101C51.6066 15.7179 52.4957 15.0103 53.5686 14.4874C54.6416 13.9644 55.8372 13.6875 57.1861 13.6875H57.4008C57.7993 13.6875 58.1365 13.8106 58.3511 14.0567C58.5657 14.3028 58.6883 14.6412 58.6883 15.0719V17.9944C58.6883 18.3944 58.5657 18.7635 58.3511 19.0404C58.1365 19.3173 57.8299 19.4711 57.4621 19.4711C57.2475 19.4711 56.9715 19.5326 56.665 19.6249C56.3278 19.7172 56.0212 19.9018 55.7453 20.1171C55.4387 20.3325 55.1934 20.6401 54.9789 20.9785C54.7643 21.3477 54.6723 21.7476 54.6723 22.2398V25.6854H57.738C58.1365 25.6854 58.4737 25.7777 58.6883 25.993C58.9029 26.2083 59.0256 26.5468 59.0256 27.039V29.6539C59.0256 30.1461 58.9029 30.5153 58.6883 30.7614C58.4737 31.0075 58.1365 31.1306 57.738 31.1306H54.6723V48.8197C54.6723 49.2812 54.519 49.6196 54.2431 49.8349C53.9365 50.081 53.63 50.1733 53.2621 50.1733H49.9818C49.5526 50.1733 49.246 50.0503 49.0008 49.7734C48.7555 49.4965 48.6636 49.1889 48.6636 48.7889V31.1306H46.5789C46.1804 31.1306 45.8431 31.0075 45.5979 30.7614C45.3526 30.5153 45.23 30.1461 45.23 29.6539V27.039C45.23 26.5468 45.3526 26.1776 45.5979 25.993C45.8431 25.7777 46.1804 25.6854 46.5789 25.6854H48.6636V23.3166H48.6022Z" fill="#3F0182" fill-opacity="0.45"/>
<path d="M73.9248 50.1734C72.8211 50.1734 71.7788 49.9888 70.7978 49.6504C69.8167 49.312 68.9584 48.8506 68.2533 48.2353C67.5175 47.62 66.9657 46.8509 66.5365 45.9588C66.1073 45.0666 65.8927 44.0514 65.8927 42.8824V39.3753V31.0384H63.4708C63.0722 31.0384 62.7657 30.9461 62.5511 30.7615C62.3365 30.5769 62.2445 30.2693 62.2445 29.8386V26.7007C62.2445 26.3008 62.3365 25.9931 62.5511 25.8393C62.7657 25.6855 63.0722 25.5932 63.4708 25.5932H65.8927C65.8927 24.8549 65.8927 24.3319 65.8927 23.5935C65.8927 22.8552 65.8927 22.1169 65.8927 21.3478C65.8927 21.0709 65.9846 20.8556 66.1686 20.671C66.3525 20.5172 66.6284 20.3634 66.9963 20.2403C67.2416 20.148 67.5175 20.0557 67.8547 19.9327C68.1919 19.8096 68.5292 19.6866 68.897 19.5943C69.2649 19.4712 69.6022 19.3789 69.9394 19.3174C70.2766 19.2251 70.5525 19.1943 70.7978 19.1943C71.227 19.1943 71.5335 19.3174 71.6562 19.5635C71.7788 19.8096 71.8708 20.1172 71.8708 20.5172C71.8708 21.4093 71.8708 22.3015 71.8708 23.1936C71.8708 24.0858 71.8708 24.7318 71.8708 25.624H74.9058C75.2736 25.624 75.5496 25.7162 75.7642 25.9008C75.9481 26.0854 76.0707 26.393 76.0707 26.793V29.8078C76.0707 30.2693 75.9788 30.5769 75.7642 30.7923C75.5802 30.9768 75.2736 31.0999 74.9058 31.0999H71.8094C71.8094 32.0228 71.8094 32.915 71.8094 33.561C71.8094 34.207 71.8094 32.1151 71.8094 32.6073C71.8094 33.0995 71.8094 33.561 71.8094 33.9917C71.8094 34.4224 71.8094 34.8838 71.8094 35.3761C71.8094 35.8683 71.8094 36.4528 71.8094 37.0681C71.8094 37.6833 71.8094 38.4832 71.8094 39.4061C71.8094 39.4369 71.8094 39.4676 71.8094 39.4984C71.8094 39.5292 71.8094 39.5599 71.8094 39.5907V42.3594C71.8094 43.2823 71.9934 43.9591 72.3613 44.3898C72.7291 44.7898 73.3116 45.0051 74.1393 45.0051C74.4459 45.0051 74.6605 45.0974 74.8445 45.3127C75.0284 45.5281 75.0897 45.7742 75.0897 46.0818V49.0352C75.0897 49.4043 74.9977 49.6812 74.7832 49.8965C74.5686 50.1119 74.2926 50.1734 73.9248 50.1734Z" fill="#3F0182" fill-opacity="0.45"/>
<path d="M80.8533 46.0816C80.8533 45.6817 80.9146 45.3433 81.0066 45.0664C81.0985 44.7896 81.3744 44.6357 81.773 44.6357H85.0839C85.2678 44.6357 85.4211 44.6357 85.6051 44.6665C85.789 44.6665 85.9423 44.728 86.0956 44.7896C86.2489 44.8511 86.3715 44.9434 86.4635 45.0664C86.5554 45.1895 86.6167 45.3741 86.6167 45.5894V48.7273C86.6167 48.9119 86.6168 49.0965 86.5861 49.2811C86.5861 49.4657 86.5248 49.6195 86.4635 49.7426C86.4021 49.8964 86.3102 49.9887 86.1876 50.081C86.0649 50.1732 85.881 50.204 85.6664 50.204H82.3555C81.865 50.204 81.4971 50.1425 81.2212 50.0502C80.9452 49.9579 80.8533 49.681 80.8533 49.2503V46.0816Z" fill="#3F0182" fill-opacity="0.45"/>
<path d="M92.932 27.2545C92.932 26.8546 93.0853 26.5469 93.3306 26.3316C93.6065 26.1162 93.913 26.0239 94.2196 26.0239H96.9174C97.2853 26.0239 97.5306 26.1162 97.7145 26.3316C97.8984 26.5469 98.0517 26.793 98.1437 27.1314C98.2357 27.4391 98.3276 27.7775 98.3583 28.1466C98.3889 28.5158 98.4503 28.8235 98.5116 29.1311C98.8181 28.7004 99.186 28.2697 99.5539 27.839C99.9524 27.4083 100.382 27.0392 100.872 26.7315C101.363 26.3931 101.914 26.147 102.558 25.9317C103.171 25.7471 103.877 25.624 104.674 25.624C105.379 25.624 106.022 25.6548 106.574 25.7471C107.126 25.8394 107.678 25.9932 108.199 26.1778C108.72 26.3624 109.211 26.6085 109.701 26.9161C110.192 27.2237 110.713 27.5929 111.295 27.9928C111.541 28.1466 111.755 28.3312 111.909 28.5158C112.093 28.7004 112.185 28.9465 112.185 29.2234C112.185 29.3464 112.154 29.4695 112.123 29.5926C112.093 29.7156 112.031 29.8387 111.939 29.9617L110.192 32.7305C110.069 32.8843 109.947 32.9766 109.793 33.0381C109.64 33.0996 109.517 33.1304 109.395 33.1304C109.18 33.1304 108.966 33.0689 108.751 32.9458C108.291 32.6997 107.862 32.4536 107.494 32.2382C107.126 32.0229 106.728 31.8075 106.36 31.6537C105.992 31.4999 105.624 31.3769 105.225 31.2846C104.827 31.1923 104.398 31.1615 103.938 31.1615C102.681 31.1615 101.608 31.5614 100.75 32.3613C99.8911 33.1611 99.3087 34.2686 99.0021 35.6838V48.9122C99.0021 49.7736 98.5729 50.1735 97.6838 50.1735H94.189C93.2999 50.1735 92.8707 49.7428 92.8707 48.9122V27.2545H92.932Z" fill="#3F0182" fill-opacity="0.45"/>
<path d="M138.519 49.3736C138.519 49.5274 138.457 49.6505 138.365 49.7428C138.273 49.8351 138.12 49.8966 137.967 49.9274C137.814 49.9581 137.63 49.9889 137.446 49.9889C137.262 49.9889 137.108 49.9889 136.955 49.9889H134.809C134.411 49.9889 134.104 49.8658 133.89 49.589C133.706 49.3121 133.552 49.0352 133.491 48.6968L133.246 46.7587C132.939 47.2201 132.541 47.6816 132.081 48.1123C131.621 48.543 131.069 48.9122 130.425 49.2506C129.782 49.589 129.046 49.8351 128.249 50.0504C127.421 50.235 126.501 50.3581 125.459 50.3581C123.773 50.3581 122.301 50.0504 121.014 49.4659C119.726 48.8506 118.653 48.0508 117.795 47.0048C116.936 45.9588 116.262 44.7283 115.802 43.3132C115.342 41.898 115.128 40.3906 115.128 38.7601V27.3775C115.128 26.8546 115.25 26.4854 115.495 26.2085C115.741 25.9316 116.078 25.8086 116.538 25.8086H119.757C120.309 25.8086 120.707 25.9009 120.891 26.1162C121.075 26.3316 121.167 26.7007 121.167 27.2545V38.6371C121.167 39.3754 121.29 40.1137 121.504 40.8213C121.749 41.5289 122.087 42.1749 122.547 42.7287C123.006 43.2824 123.589 43.7439 124.294 44.0823C124.999 44.4207 125.796 44.6052 126.746 44.6052C127.39 44.6052 128.065 44.4822 128.77 44.2668C129.475 44.0515 130.119 43.6823 130.701 43.2209C131.284 42.7594 131.774 42.1749 132.142 41.4673C132.51 40.7598 132.725 39.9599 132.725 39.0062V28.0236C132.725 27.7775 132.725 27.5006 132.755 27.2545C132.786 26.9776 132.847 26.7623 132.939 26.5469C133.031 26.3316 133.154 26.147 133.307 26.0239C133.46 25.9009 133.706 25.8086 133.981 25.8086H137.476C137.936 25.8086 138.273 25.9316 138.488 26.147C138.703 26.3623 138.825 26.7007 138.825 27.1007V48.7276C138.856 49.0045 138.733 49.2198 138.519 49.3736Z" fill="#3F0182" fill-opacity="0.45"/>
<path d="M16.6273 10.3965L16.5967 9.25819C16.5967 8.98132 16.4127 2.18253 20.7967 0.828919C21.8697 0.490518 23.0039 0.613573 23.985 1.13656C24.966 1.65954 25.7017 2.52093 26.039 3.59766C26.7134 5.81265 25.4872 8.1507 23.2799 8.8275C21.5631 9.35048 17.9149 10.1196 17.7616 10.1811L16.6273 10.3965ZM22.0536 2.55169C21.839 2.55169 21.5937 2.58245 21.3791 2.64398C20.1529 3.01314 19.2945 4.21293 18.8346 6.15105C18.6813 6.85861 18.5894 7.50466 18.5281 8.05841C19.7543 7.78153 21.655 7.35084 22.6974 7.01244C23.2799 6.82786 23.7397 6.42793 24.0463 5.90494C24.3222 5.35119 24.3835 4.73591 24.1996 4.1514C24.0156 3.56689 23.6171 3.10544 23.0959 2.7978C22.7587 2.64398 22.4215 2.55169 22.0536 2.55169Z" fill="#F7981D"/>
<path d="M16.6273 10.3962L15.5237 10.1501C15.3704 10.1194 11.7223 9.35028 10.0055 8.79653C7.79821 8.11972 6.57194 5.75091 7.24639 3.56668C7.92084 1.35169 10.2814 0.121136 12.458 0.79794C16.8726 2.15155 16.6886 8.95034 16.658 9.22722L16.6273 10.3962ZM11.2318 2.55148C10.8639 2.55148 10.496 2.64377 10.1588 2.82835C9.60695 3.10523 9.23907 3.59745 9.05513 4.18196C8.87119 4.76647 8.9325 5.38175 9.20841 5.9355C9.48432 6.48925 9.97484 6.85841 10.5573 7.043C11.5996 7.3814 13.5003 7.81209 14.7266 8.08896C14.696 7.53521 14.604 6.85841 14.42 6.15084C13.9602 4.21272 13.1018 3.07446 11.9062 2.67453C11.6916 2.58224 11.4464 2.55148 11.2318 2.55148Z" fill="#F7981D"/>
<path d="M31.833 13.8728H1.39084C0.930986 13.8728 0.56311 13.5037 0.56311 13.0422V10.7964C0.56311 10.335 0.930986 9.96582 1.39084 9.96582H31.833C32.2929 9.96582 32.6608 10.335 32.6608 10.7964V13.0422C32.6301 13.5037 32.2622 13.8728 31.833 13.8728Z" fill="#F7981D"/>
</svg>
