<svg width="20" height="20" viewBox="0 0 20 20" fill="none" xmlns="http://www.w3.org/2000/svg">
<path d="M18.2422 3.14844H1.75781C0.788555 3.14844 0 3.93699 0 4.90625V15.093C0 16.0623 0.788555 16.8509 1.75781 16.8509H18.2422C19.2114 16.8509 20 16.0623 20 15.093V4.90625C20 3.93699 19.2114 3.14844 18.2422 3.14844ZM18.0128 4.32031L17.7782 4.51566L10.6974 10.4118C10.2933 10.7483 9.70664 10.7483 9.30258 10.4118L2.22184 4.51566L1.98723 4.32031H18.0128ZM1.17188 5.16633L6.94109 9.97035L1.17188 13.8099V5.16633ZM18.2422 15.679H1.75781C1.47469 15.679 1.23789 15.4771 1.18363 15.2098L7.8807 10.7527L8.55273 11.3123C8.97203 11.6615 9.48606 11.8361 10 11.8361C10.514 11.8361 11.028 11.6615 11.4473 11.3123L12.1194 10.7527L18.8164 15.2098C18.7621 15.4771 18.5253 15.679 18.2422 15.679ZM18.8281 13.8099L13.0589 9.97039L18.8281 5.16633V13.8099Z" fill="#6C6C6C"/>
</svg>
