<svg width="156" height="29" viewBox="0 0 156 29" fill="none" xmlns="http://www.w3.org/2000/svg">
<path d="M13.0714 2.92705C13.3708 2.00574 14.6742 2.00574 14.9735 2.92705L16.9462 8.99831C17.0801 9.41033 17.464 9.68929 17.8973 9.68929H24.281C25.2497 9.68929 25.6525 10.9289 24.8687 11.4983L19.7042 15.2506C19.3537 15.5052 19.2071 15.9566 19.3409 16.3686L21.3136 22.4398C21.613 23.3612 20.5585 24.1273 19.7748 23.5579L14.6103 19.8056C14.2598 19.551 13.7852 19.551 13.4347 19.8056L8.27017 23.5579C7.48645 24.1273 6.43197 23.3611 6.73133 22.4398L8.704 16.3686C8.83787 15.9566 8.69121 15.5052 8.34073 15.2506L3.17621 11.4983C2.39249 10.9289 2.79527 9.68929 3.76399 9.68929H10.1477C10.5809 9.68929 10.9649 9.41033 11.0987 8.99831L13.0714 2.92705Z" fill="#FFA927"/>
<path d="M45.4984 2.92705C45.7978 2.00574 47.1012 2.00574 47.4005 2.92705L49.3732 8.99831C49.5071 9.41033 49.891 9.68929 50.3243 9.68929H56.708C57.6767 9.68929 58.0795 10.9289 57.2957 11.4983L52.1312 15.2506C51.7807 15.5052 51.6341 15.9566 51.768 16.3686L53.7406 22.4398C54.04 23.3612 52.9855 24.1273 52.2018 23.5579L47.0373 19.8056C46.6868 19.551 46.2122 19.551 45.8617 19.8056L40.6972 23.5579C39.9135 24.1273 38.859 23.3611 39.1583 22.4398L41.131 16.3686C41.2649 15.9566 41.1182 15.5052 40.7677 15.2506L35.6032 11.4983C34.8195 10.9289 35.2223 9.68929 36.191 9.68929H42.5747C43.0079 9.68929 43.3919 9.41033 43.5257 8.99831L45.4984 2.92705Z" fill="#FFA927"/>
<path d="M77.9253 2.92705C78.2247 2.00574 79.5281 2.00574 79.8274 2.92705L81.8001 8.99831C81.934 9.41033 82.3179 9.68929 82.7511 9.68929H89.1348C90.1036 9.68929 90.5063 10.9289 89.7226 11.4983L84.5581 15.2506C84.2076 15.5052 84.061 15.9566 84.1948 16.3686L86.1675 22.4398C86.4669 23.3612 85.4124 24.1273 84.6287 23.5579L79.4641 19.8056C79.1137 19.551 78.6391 19.551 78.2886 19.8056L73.124 23.5579C72.3403 24.1273 71.2859 23.3611 71.5852 22.4398L73.5579 16.3686C73.6918 15.9566 73.5451 15.5052 73.1946 15.2506L68.0301 11.4983C67.2464 10.9289 67.6492 9.68929 68.6179 9.68929H75.0016C75.4348 9.68929 75.8188 9.41033 75.9526 8.99831L77.9253 2.92705Z" fill="#FFA927"/>
<path d="M109.666 2.92705C109.965 2.00574 111.269 2.00574 111.568 2.92705L113.541 8.99831C113.675 9.41033 114.059 9.68929 114.492 9.68929H120.876C121.844 9.68929 122.247 10.9289 121.463 11.4983L116.299 15.2505C115.948 15.5052 115.802 15.9566 115.936 16.3686L117.908 22.4398C118.208 23.3611 117.153 24.1273 116.369 23.5579L111.205 19.8056C110.854 19.551 110.38 19.551 110.029 19.8056L104.865 23.5579C104.081 24.1273 103.027 23.3611 103.326 22.4398L105.299 16.3686C105.432 15.9566 105.286 15.5052 104.935 15.2505L99.7708 11.4983C98.9871 10.9289 99.3898 9.68929 100.359 9.68929H106.742C107.175 9.68929 107.559 9.41033 107.693 8.99831L109.666 2.92705Z" fill="#FFA927" fill-opacity="0.4"/>
<path d="M141.026 2.92705C141.326 2.00574 142.629 2.00574 142.929 2.92705L144.901 8.99831C145.035 9.41033 145.419 9.68929 145.852 9.68929H152.236C153.205 9.68929 153.608 10.9289 152.824 11.4983L147.659 15.2506C147.309 15.5052 147.162 15.9566 147.296 16.3686L149.269 22.4398C149.568 23.3612 148.514 24.1273 147.73 23.5579L142.565 19.8056C142.215 19.551 141.74 19.551 141.39 19.8056L136.225 23.5579C135.442 24.1273 134.387 23.3611 134.686 22.4398L136.659 16.3686C136.793 15.9566 136.646 15.5052 136.296 15.2506L131.131 11.4983C130.348 10.9289 130.75 9.68929 131.719 9.68929H138.103C138.536 9.68929 138.92 9.41033 139.054 8.99831L141.026 2.92705Z" fill="#FFA927" fill-opacity="0.4"/>
</svg>
