<svg width="124" height="163" viewBox="0 0 124 163" fill="none" xmlns="http://www.w3.org/2000/svg">
<path d="M23.364 158C22.9973 158 22.726 157.853 22.55 157.56C22.3887 157.252 22.3813 156.944 22.528 156.636L28.908 141.456C29.084 141.031 29.3773 140.818 29.788 140.818C30.228 140.818 30.536 141.031 30.712 141.456L37.114 156.658C37.246 156.981 37.224 157.289 37.048 157.582C36.8867 157.861 36.63 158 36.278 158C36.0873 158 35.9113 157.949 35.75 157.846C35.5887 157.743 35.4713 157.604 35.398 157.428L29.502 143.084H30.206L24.244 157.428C24.156 157.619 24.0313 157.765 23.87 157.868C23.7233 157.956 23.5547 158 23.364 158ZM47.0685 158.22C45.8805 158.22 44.7658 157.993 43.7245 157.538C42.6978 157.083 41.7885 156.453 40.9965 155.646C40.2192 154.839 39.6105 153.908 39.1705 152.852C38.7452 151.781 38.5325 150.63 38.5325 149.398C38.5325 148.181 38.7452 147.044 39.1705 145.988C39.6105 144.917 40.2192 143.986 40.9965 143.194C41.7738 142.387 42.6758 141.757 43.7025 141.302C44.7438 140.833 45.8658 140.598 47.0685 140.598C48.1392 140.598 49.0998 140.752 49.9505 141.06C50.8012 141.353 51.6298 141.837 52.4365 142.512C52.5685 142.615 52.6492 142.732 52.6785 142.864C52.7225 142.981 52.7225 143.099 52.6785 143.216C52.6492 143.333 52.5978 143.436 52.5245 143.524C52.4952 143.685 52.4072 143.817 52.2605 143.92C52.1285 144.008 51.9672 144.052 51.7765 144.052C51.5858 144.052 51.3952 143.979 51.2045 143.832C50.6472 143.333 50.0458 142.967 49.4005 142.732C48.7552 142.483 47.9778 142.358 47.0685 142.358C46.1445 142.358 45.2718 142.549 44.4505 142.93C43.6438 143.297 42.9325 143.803 42.3165 144.448C41.7005 145.093 41.2165 145.841 40.8645 146.692C40.5272 147.543 40.3585 148.445 40.3585 149.398C40.3585 150.381 40.5272 151.297 40.8645 152.148C41.2165 152.999 41.7005 153.747 42.3165 154.392C42.9325 155.037 43.6438 155.543 44.4505 155.91C45.2718 156.277 46.1445 156.46 47.0685 156.46C47.8458 156.46 48.5865 156.328 49.2905 156.064C49.9945 155.8 50.6692 155.426 51.3145 154.942C51.5198 154.781 51.7252 154.715 51.9305 154.744C52.1505 154.773 52.3338 154.869 52.4805 155.03C52.6418 155.177 52.7225 155.382 52.7225 155.646C52.7225 155.778 52.7005 155.895 52.6565 155.998C52.6125 156.101 52.5465 156.211 52.4585 156.328C51.6958 156.988 50.8525 157.472 49.9285 157.78C49.0192 158.073 48.0658 158.22 47.0685 158.22ZM61.3351 158C61.0711 158 60.8438 157.912 60.6531 157.736C60.4771 157.545 60.3891 157.318 60.3891 157.054V140.818H62.2811V157.054C62.2811 157.318 62.1931 157.545 62.0171 157.736C61.8411 157.912 61.6138 158 61.3351 158ZM55.3291 142.556C55.0651 142.556 54.8525 142.475 54.6911 142.314C54.5298 142.138 54.4491 141.933 54.4491 141.698C54.4491 141.434 54.5298 141.221 54.6911 141.06C54.8525 140.899 55.0651 140.818 55.3291 140.818H67.3631C67.6271 140.818 67.8398 140.899 68.0011 141.06C68.1625 141.221 68.2431 141.434 68.2431 141.698C68.2431 141.933 68.1625 142.138 68.0011 142.314C67.8398 142.475 67.6271 142.556 67.3631 142.556H55.3291ZM72.8021 158.176C72.1275 158.176 71.4821 157.963 70.8661 157.538C70.6168 157.391 70.4701 157.201 70.4261 156.966C70.3968 156.731 70.4628 156.511 70.6241 156.306C70.7708 156.071 70.9615 155.939 71.1961 155.91C71.4308 155.881 71.6801 155.947 71.9441 156.108C72.0761 156.196 72.2155 156.262 72.3621 156.306C72.5088 156.35 72.6701 156.372 72.8461 156.372C73.2715 156.372 73.7041 156.181 74.1441 155.8C74.5841 155.404 74.9728 154.847 75.3101 154.128L81.3821 141.39C81.6315 140.847 82.0275 140.693 82.5701 140.928C83.0981 141.177 83.2301 141.573 82.9661 142.116L76.9161 154.876C76.4175 155.932 75.8088 156.746 75.0901 157.318C74.3861 157.89 73.6235 158.176 72.8021 158.176ZM76.0581 154.524L68.7101 142.204C68.4021 141.691 68.5195 141.287 69.0621 140.994C69.5755 140.686 69.9861 140.796 70.2941 141.324L77.2901 153.578L76.0581 154.524ZM92.9347 158C92.6707 158 92.4434 157.912 92.2527 157.736C92.0767 157.56 91.9887 157.333 91.9887 157.054C91.9887 156.805 92.0767 156.592 92.2527 156.416L98.7867 148.716C99.1827 148.276 99.4907 147.821 99.7107 147.352C99.9454 146.868 100.063 146.413 100.063 145.988C100.063 145.313 99.9307 144.719 99.6667 144.206C99.4174 143.693 99.058 143.297 98.5887 143.018C98.1194 142.725 97.5767 142.578 96.9607 142.578C96.374 142.578 95.8314 142.732 95.3327 143.04C94.8487 143.348 94.4674 143.759 94.1887 144.272C93.91 144.785 93.7707 145.357 93.7707 145.988C93.7707 146.237 93.6827 146.457 93.5067 146.648C93.3307 146.824 93.1107 146.912 92.8467 146.912C92.5827 146.912 92.3554 146.824 92.1647 146.648C91.9887 146.457 91.9007 146.237 91.9007 145.988C91.9007 145.005 92.1207 144.125 92.5607 143.348C93.0154 142.556 93.624 141.933 94.3867 141.478C95.1494 141.023 96.0074 140.796 96.9607 140.796C97.9287 140.796 98.7794 141.016 99.5127 141.456C100.261 141.896 100.84 142.505 101.251 143.282C101.661 144.059 101.867 144.961 101.867 145.988C101.867 146.472 101.786 146.941 101.625 147.396C101.463 147.836 101.243 148.269 100.965 148.694C100.686 149.105 100.393 149.486 100.085 149.838L94.6287 156.13H101.295C101.559 156.13 101.779 156.225 101.955 156.416C102.145 156.607 102.241 156.819 102.241 157.054C102.241 157.333 102.145 157.56 101.955 157.736C101.779 157.912 101.559 158 101.295 158H92.9347Z" fill="#267EB9"/>
<rect width="124" height="124" rx="62" fill="#267EB9"/>
<g clip-path="url(#clip0_183_190)">
<line x1="61.5" y1="13.5" x2="61.5" y2="112.5" stroke="white" stroke-linecap="round"/>
<rect width="27" height="35" transform="translate(62 33)" fill="#267EB9"/>
<line x1="48" y1="73.5" x2="90" y2="73.5" stroke="white"/>
<line x1="60.2796" y1="70.5855" x2="65.1289" y2="73.8564" stroke="white"/>
<line x1="61.3802" y1="42.6753" x2="65.179" y2="47.1231" stroke="white"/>
<line x1="66.7225" y1="48.5403" x2="69.7352" y2="53.5542" stroke="white"/>
<line x1="70.6547" y1="55.6773" x2="73.1729" y2="60.9568" stroke="white"/>
<line x1="73.618" y1="62.7891" x2="75.474" y2="68.3362" stroke="white"/>
<path d="M74.8486 66.719C77.7904 74.1444 72.5 73.5 69.5001 73.5002" stroke="white"/>
<rect x="18.5" y="26.5" width="71.8333" height="55.5714" rx="2.5" stroke="white"/>
<path d="M46.6616 83.4443C46.6723 90.0269 45.5528 93.9255 42.7633 95.3715" stroke="white"/>
<path d="M68.5842 83.4443C68.5736 90.0269 69.6931 93.9255 72.4825 95.3715" stroke="white"/>
<rect x="39.2273" y="96.0015" width="37" height="2.42222" rx="1.21111" stroke="white"/>
<g clip-path="url(#clip1_183_190)">
<rect width="45" height="92" transform="translate(16 13)" fill="#267EB9"/>
<circle cx="23" cy="26" r="2" fill="white"/>
</g>
<line x1="62" y1="52" x2="66" y2="52" stroke="white"/>
<line x1="69.0174" y1="52.2005" x2="73.015" y2="52.3401" stroke="white"/>
<line x1="70.9782" y1="67.6582" x2="74.9744" y2="67.4837" stroke="white"/>
<line x1="80.0349" y1="52.5012" x2="84.0251" y2="52.7802" stroke="white"/>
<line x1="86.084" y1="53.3657" x2="90.0451" y2="53.9224" stroke="white"/>
<line x1="86.9228" y1="66.1505" x2="90.8558" y2="65.4215" stroke="white"/>
<line x1="79.9205" y1="67.1131" x2="83.8907" y2="66.6256" stroke="white"/>
<line x1="61.9896" y1="68.0001" x2="65.989" y2="67.9303" stroke="white"/>
<circle cx="61.5" cy="58.5" r="2.5" fill="white"/>
<path d="M60.744 47C15.3946 94.6679 26.8542 108.063 62 74.0143" stroke="white"/>
<path d="M60.744 47C15.3946 94.6679 26.8542 108.063 62 74.0143" stroke="white"/>
</g>
<path d="M61.5001 52.0883C-4.5 52.0885 12.5001 68.0882 61.5 68.0882" stroke="white"/>
<path d="M60.744 70C15.3946 22.3321 26.8542 8.93719 62 42.9857" stroke="white"/>
<line y1="-0.5" x2="3.55134" y2="-0.5" transform="matrix(0.700987 -0.713174 0.531263 0.847207 56 52.9043)" stroke="white"/>
<line y1="-0.5" x2="3.00964" y2="-0.5" transform="matrix(0.67025 -0.742135 0.563701 0.825979 59.6255 48.6138)" stroke="white"/>
<line y1="-0.5" x2="5.95558" y2="-0.5" transform="matrix(0.702461 -0.711722 0.529685 0.848194 69.2297 37.7583)" stroke="white"/>
<line y1="-0.5" x2="6.05759" y2="-0.5" transform="matrix(0.650629 -0.759396 0.583983 0.811766 63.6216 44.353)" stroke="white"/>
<line x1="76.5492" y1="49.7837" x2="80.9915" y2="40.5268" stroke="white"/>
<line x1="67.5786" y1="63.5585" x2="72.5786" y2="55.7308" stroke="white"/>
<line y1="-0.5" x2="6.98107" y2="-0.5" transform="matrix(0.550623 -0.834755 0.68274 0.730661 62.5959 74.1328)" stroke="white"/>
<path d="M81.1711 38.3149C82.7178 32.3318 77.8646 29.515 75.0213 31.9522" stroke="white"/>
<defs>
<clipPath id="clip0_183_190">
<rect x="24" y="16" width="77" height="94" rx="38.5" fill="white"/>
</clipPath>
<clipPath id="clip1_183_190">
<rect width="45" height="92" fill="white" transform="translate(16 13)"/>
</clipPath>
</defs>
</svg>
